<?xml version="1.0" encoding="utf-8"?>
<!-- Generator: Adobe Illustrator 16.0.0, SVG Export Plug-In . SVG Version: 6.00 Build 0)  -->
<!DOCTYPE svg PUBLIC "-//W3C//DTD SVG 1.1//EN" "http://www.w3.org/Graphics/SVG/1.1/DTD/svg11.dtd">
<svg version="1.1" id="Layer_1" xmlns="http://www.w3.org/2000/svg" xmlns:xlink="http://www.w3.org/1999/xlink" x="0px" y="0px"
	 width="2000px" height="250px" viewBox="0 0 2000 250" enable-background="new 0 0 2000 250" xml:space="preserve">
<g opacity="0.02">
	<path fill="#FFFFFF" d="M-38.603,203.219c0,0,849.404-224.63,2130.531,0S-38.603,316.838-38.603,316.838V203.219z"/>
	<path d="M1494.933,344.768c-682.704,0-1525.122-27.155-1533.551-27.43l-0.484-0.016V202.834l0.372-0.099
		c0.944-0.25,96.406-25.252,267.748-49.929c158.129-22.775,415.074-49.923,741.162-49.923c366.547,0,743.988,33.592,1121.835,99.843
		c195.812,34.333,290.051,61.905,288.104,84.294c-1.835,21.083-88.676,36.025-265.487,45.68
		C1967.98,340.707,1759.483,344.768,1494.933,344.768z M-38.103,316.354c24.382,0.787,857.015,27.414,1533.035,27.414
		c264.532,0,473.012-4.06,619.644-12.066c173.781-9.488,262.786-24.551,264.545-44.768c1.868-21.471-94.786-49.471-287.278-83.223
		c-377.792-66.241-755.174-99.828-1121.664-99.828c-326.017,0-582.903,27.141-740.997,49.91
		c-165.876,23.889-260.604,48.08-267.285,49.813V316.354z"/>
</g>
<g opacity="0.02">
	<path fill="#FFFFFF" d="M-38.603,128.211c0,0,849.404-224.63,2130.531,0S-38.603,241.83-38.603,241.83V128.211z"/>
	<path d="M1494.933,269.76c-682.704,0-1525.122-27.155-1533.551-27.43l-0.484-0.016V127.826l0.372-0.099
		c0.944-0.25,96.406-25.251,267.748-49.929c158.129-22.774,415.074-49.923,741.162-49.923c366.547,0,743.988,33.592,1121.835,99.843
		c195.812,34.333,290.051,61.905,288.104,84.294c-1.835,21.083-88.676,36.025-265.487,45.68
		C1967.98,265.699,1759.483,269.76,1494.933,269.76z M-38.103,241.346c24.382,0.787,857.015,27.414,1533.035,27.414
		c264.532,0,473.012-4.06,619.644-12.066c173.781-9.488,262.786-24.551,264.545-44.768c1.868-21.471-94.786-49.471-287.278-83.223
		c-377.792-66.241-755.174-99.828-1121.664-99.828c-326.017,0-582.903,27.141-740.997,49.909
		c-165.876,23.89-260.604,48.081-267.285,49.813V241.346z"/>
</g>
</svg>
