<?xml version="1.0" encoding="utf-8"?>
<!-- Generator: Adobe Illustrator 16.0.0, SVG Export Plug-In . SVG Version: 6.00 Build 0)  -->
<!DOCTYPE svg PUBLIC "-//W3C//DTD SVG 1.1//EN" "http://www.w3.org/Graphics/SVG/1.1/DTD/svg11.dtd">
<svg version="1.1" id="Layer_1" xmlns="http://www.w3.org/2000/svg" xmlns:xlink="http://www.w3.org/1999/xlink" x="0px" y="0px"
	 width="600px" height="100px" viewBox="0 0 600 100" enable-background="new 0 0 600 100" xml:space="preserve">
<path fill="#FFFFFF" d="M127.24,46.803c0,0-5.386,0.365-4.929-1.37c0.456-1.734,7.668-3.104,7.668-3.104s-5.294-6.025,10.771-5.295
	c0,0-2.373-10.498,14.149-14.606c16.522-4.107,22.822,2.556,22.822,2.556s0.913-11.411,11.958-11.319
	c11.045,0.091,12.597,8.125,12.232,10.498c0,0,1.552-5.477,15.427-1.826c13.876,3.652,13.693,11.228,13.693,11.228
	s7.211-4.108,15.61,1.278c0,0,23.186-5.294,36.97,4.382c0,0,13.693-3.56,22.183,4.747c0,0,1.552,1.095-0.73,2.464
	C302.781,47.807,127.24,46.803,127.24,46.803z"/>
</svg>
