<?xml version="1.0" encoding="utf-8"?>
<!-- Generator: Adobe Illustrator 16.0.0, SVG Export Plug-In . SVG Version: 6.00 Build 0)  -->
<!DOCTYPE svg PUBLIC "-//W3C//DTD SVG 1.1//EN" "http://www.w3.org/Graphics/SVG/1.1/DTD/svg11.dtd">
<svg version="1.1" id="Layer_1" xmlns="http://www.w3.org/2000/svg" xmlns:xlink="http://www.w3.org/1999/xlink" x="0px" y="0px"
	 width="600px" height="300px" viewBox="0 0 600 300" enable-background="new 0 0 600 300" xml:space="preserve">
<path d="M244.667,79.167c2.5,0,4,1.5,6.167,2.333c2.167,0.667,4.5,0.167,6.833,0.334c5.5,0.5,9.167,6.333,14.833,4.833
	c2.333-0.667,4.5-2.167,6.833-1.5c3.5,0.833,2.333,2.167,5.333-0.167c4.667-3.5,7.167-1,11.667,1.167c2.167,1,5.167,1.333,7.5,1.167
	c2.333-0.167,4,0,6.5,0c4.833,0.166,9.167,2,14,1.833c4.5-0.167,8.5-0.5,12.834-1.167c2.166-0.333,4.666-0.333,6.833-0.833
	c2.333-0.667,4-1.833,6.667-1.833c5.5,0,8.5,4.333,13.666,5.5c2.5,0.5,4,0.333,6.167-0.667c3-1.5,3-1.333,6-0.333
	c2.667,0.833,4.5-0.334,7-0.167c2.667,0.167,3.167,1,6,0.167c4.667-1.667,9.167,1.666,13.667,3.5c2,0.833,4,1.666,6,2.666
	c0.833,0.334,1.833,1,2.666,1.167c1.834,0.167,2-1.167,3.334-1.167c2.5-0.333,4,3.167,5.833,4.667c1.833,1.333,3.333,2,5.667,2
	c4.666,0,8.166-5,12.666-7c2.167-1,4.5-1.833,6.834-2c2-0.167,5,0.833,7,0c2.333-0.833,2.833-3.5,5.666-3.833
	c1.5-0.167,3,0.666,4.5,0.333c1.667-0.333,2-1.333,3.334-2c3.333-1.833,10.666-3.333,12.5,0.833c2.333,5.167,0.666,12.5,1.5,18.167
	c0.666,4,1,8.5,0.333,12.667c-1.333,9.333-8.333,12.833-17,13.666c-8.167,1-15.667,3.834-24,4.167
	c-9.167,0.167-18.5,0.667-27.667,0.667c-9.833,0-19.833-0.334-29.666-0.5c-11.167,0-22-1.167-33-1.5
	C323.333,135.167,297,133.5,270.5,132.5c-7-0.333-14.5-0.5-21.5-1.833c-3.333-0.667-6.5-1-9.833-1.167
	c-1.167,0-2.5,0.167-3.167-0.666c-1-1.167-0.833-6-1.333-7.667c-0.833-3-2.333-6-3-9c-1.833-8.167,2.5-14.333,5.167-21.667
	C238.667,85.667,240.167,82.334,244.667,79.167"/>
</svg>
