<?xml version="1.0" encoding="utf-8"?>
<!-- Generator: Adobe Illustrator 16.0.0, SVG Export Plug-In . SVG Version: 6.00 Build 0)  -->
<!DOCTYPE svg PUBLIC "-//W3C//DTD SVG 1.1//EN" "http://www.w3.org/Graphics/SVG/1.1/DTD/svg11.dtd">
<svg version="1.1" id="Layer_1" xmlns="http://www.w3.org/2000/svg" xmlns:xlink="http://www.w3.org/1999/xlink" x="0px" y="0px"
	 width="70.54px" height="70.092px" viewBox="0 0 70.54 70.092" enable-background="new 0 0 70.54 70.092" xml:space="preserve">
<circle fill="#212931" cx="35.269" cy="34.957" r="34.957"/>
<g>
	<g>
		<g>
			<path fill="#FFFFFF" d="M17.676,37.992c14.866,0,20.693,0,35.558,0c2.732,0,2.732-4.238,0-4.238c-14.865,0-20.692,0-35.558,0
				C14.943,33.754,14.943,37.992,17.676,37.992L17.676,37.992z"/>
		</g>
	</g>
	<g>
		<g>
			<path fill="#FFFFFF" d="M19.44,37.082c5.257-5.254,10.512-10.511,15.768-15.767c1.934-1.934-1.062-4.93-2.996-2.995
				c-5.256,5.255-10.512,10.512-15.769,15.768C14.51,36.021,17.507,39.018,19.44,37.082L19.44,37.082z"/>
		</g>
	</g>
	<g>
		<g>
			<path fill="#FFFFFF" d="M16.237,37.498c5.255,5.256,10.512,10.512,15.768,15.768c1.934,1.932,4.93-1.063,2.995-2.996
				c-5.254-5.256-10.511-10.512-15.767-15.77C17.299,32.567,14.303,35.563,16.237,37.498L16.237,37.498z"/>
		</g>
	</g>
</g>
<path fill="none" stroke="#FFFFFF" stroke-width="0.25" stroke-miterlimit="10" d="M-95.428-64.766"/>
</svg>
