<?xml version="1.0" encoding="utf-8"?>
<!-- Generator: Adobe Illustrator 16.0.0, SVG Export Plug-In . SVG Version: 6.00 Build 0)  -->
<!DOCTYPE svg PUBLIC "-//W3C//DTD SVG 1.1//EN" "http://www.w3.org/Graphics/SVG/1.1/DTD/svg11.dtd">
<svg version="1.1" id="Layer_1" xmlns="http://www.w3.org/2000/svg" xmlns:xlink="http://www.w3.org/1999/xlink" x="0px" y="0px"
	 width="466.5px" height="112.5px" viewBox="0 0 466.5 112.5" enable-background="new 0 0 466.5 112.5" xml:space="preserve">
<polygon fill="#1A262F" points="0,112.5 49.5,57 84.75,63 151,27 192,42.25 257.75,0 353.25,74.25 400.75,64.25 466.5,112.5 "/>
<polygon fill="#232E36" points="49.5,57 52,89.164 36.25,96.414 44.125,75.414 24.199,85.368 "/>
<polygon fill="#232E36" points="151,27 136.5,69.414 147,80.914 116.75,112.5 110,112.5 122,77.914 84.75,63 "/>
<polygon fill="#232E36" points="192,42.25 186.5,65.414 233.25,67.914 226.5,104.914 256.25,57 226.25,54.414 257.75,0 "/>
<polygon fill="#232E36" points="353.25,74.25 344.5,94.164 400.75,64.25 "/>
</svg>
