<?xml version="1.0" encoding="utf-8"?>
<!-- Generator: Adobe Illustrator 16.0.0, SVG Export Plug-In . SVG Version: 6.00 Build 0)  -->
<!DOCTYPE svg PUBLIC "-//W3C//DTD SVG 1.1//EN" "http://www.w3.org/Graphics/SVG/1.1/DTD/svg11.dtd">
<svg version="1.1" xmlns="http://www.w3.org/2000/svg" xmlns:xlink="http://www.w3.org/1999/xlink" x="0px" y="0px" width="1901px"
	 height="831px" viewBox="0 0 1901 831" enable-background="new 0 0 1901 831" xml:space="preserve">
<g id="Layer_2" display="none">
	<path display="inline" fill="#303030" d="M969.662,524.564c-119.772,76.219-421.109,203.49-700.01,310.889v627.661
		c80.053,51.025,135.824,85.349,135.824,85.349l2862.731-710.459c-62.688-20.896-626.876-83.585-1149.271-313.439
		C1596.537,294.711,1199.52,378.295,969.662,524.564z"/>
</g>
<g id="Layer_1">
	<g>
		<path fill="#1C1C1C" d="M798.522,785.168c-5.37,8.664-8.054,11.812-9.843,12.602c-1.79,0.783-5.82,3.147-5.82,3.147l-1.339-8.658
			l4.023-7.874l-4.475,0.783l1.34-7.085l3.135-5.511l-5.813,1.574c0,0,3.129-13.386,6.708-21.261
			c3.579-7.874,3.579-7.874,3.579-7.874c3.586-5.512-2.684-1.574-2.684-1.574l1.789-12.596c2.691-7.091-1.345-0.79,2.691-7.091
			c4.023-6.3,3.128-5.511,5.37-10.238c2.233-4.72,3.579-8.658,3.579-8.658s-4.481,6.302-7.609,9.448
			c-3.135,3.148-4.474,7.091-7.609,10.231c-3.135,3.154-3.135,5.518-5.37,9.456c-2.234,3.937-4.925,13.385-4.925,7.083
			c0-6.3,1.79-14.168,1.79-14.168l-1.79,7.868l-4.917,8.664l-3.135,2.363c0,0-1.34-6.301-0.895-8.664
			c0.444-2.363-1.79-6.295,0-7.875c1.79-1.573,4.03-3.938,4.925-7.084c0.895-3.147,0.895-3.147,0.895-3.147l-7.165,4.721l0.45-9.448
			l1.339-8.664c3.586-4.721,7.165-9.442,7.165-9.442c2.586-4.555,6.413-13.478,6.685-14.114c-2.611,3.389-6.024,7.622-8.029,9.387
			c-3.579,3.148-7.609,7.875-7.609,7.875l-5.37,8.658c0,0,0-7.084,0.45-9.448c0.451-2.357,1.79-7.875,2.241-11.021
			c0.444-3.147,0-9.448-0.901-7.091c-0.889,2.363-5.814,17.322-6.258,19.686c-0.451,2.364,0.444,5.512-1.796,6.301
			c-2.24,0.79-3.129,5.512-4.919,1.574c-1.79-3.938-3.196-10.238-3.196-10.238l6.325-3.931l-6.325-0.79c0,0,9.589-2.303,6.325-7.084
			c-2.684-3.938,0,0-2.684-3.938c-2.685-3.937-3.136,0-2.685-3.937c0.45-3.938,4.03-4.728,4.03-4.728h6.258c0,0,0-4.721,2.246-7.875
			c0.889-1.253,1.562-2.246,2.198-3.152c-4.468-0.766-8.911,1.579-8.911,1.579l2.684-7.875c0,0,2.241-2.356,4.919-6.301
			c2.691-3.937,7.61-11.805,9.399-13.385c1.413-1.241,2.833-4.438,4.239-6.506c-4.048,4.481-16.682,17.7-16.316,15.17
			c0.444-3.147,1.789-10.238,1.789-10.238l-4.923,12.602l-2.691,4.722l-3.129,3.937l-2.747-0.789l-2.851-5.512
			c0,0,2.344-5.51,2.851-6.294c0.505-0.791-2.851-1.574-2.851-1.574l2.851-3.153l-2.851-2.363l6.047-2.358l-3.196-6.3
			c0.062-3.938-2.851-7.876-2.851-7.876s6.936-3.146,5.597-3.146c-1.34,0-5.597-3.937-5.597-3.937l-4.69-66.934
			c0,0,0.888,19.686,0,40.946c-0.902,21.259,0,24.413-1.346,30.707c-1.345,6.302-1.345,22.834-3.135,18.897
			c-1.79-3.938-1.79-7.87-5.813-11.813c-4.03-3.931,1.34,5.141,2.679,10.837c1.345,5.702,5.375,10.424,4.48,12.787
			c-0.901,2.363-5.369-7.875-5.369-5.512c0,2.364,0.716,2.364,2.814,9.449c2.104,7.091,1.703,13.453,0,11.812
			c-3.265-3.146-4.419-0.783-6.079-7.085c-1.661-6.301,0.129-10.237-1.661-6.301c-1.79,3.938-2.685-15.749-2.685-15.749
			l-2.24,13.386c0,0-12.527-25.457-12.527-21.785c0,3.673,14.564,26.247,16.533,38.849c3.153,10.497,6.437,16.274,4.943,15.219
			c-1.487-1.049-6.263-0.802-4.467,0.123c1.789,0.933,4.467,3.029,4.171,5.128c-0.296,2.099-2.733,3.678-5.542,0
			c-2.814-3.672-5.493,0-2.814-6.3c2.691-6.295-0.593-1.574-2.679-2.099c-2.091-0.524,0.298-3.672,0.889-7.874
			c0.599-4.197,1.79-4.722-1.789-2.099c-3.58,2.622-14.022-26.247-13.72-22.575c0.296,3.678,10.437,24.674,11.337,28.876
			c0.889,4.196-8.949,0-7.159,1.574c1.79,1.573,8.652,3.146,7.751,5.245c-0.889,2.104-5.073,1.056-3.58,3.152
			c1.494,2.099,3.284,3.883,4.481,4.303c1.184,0.419-2.395,1.993-3.284,3.572c-0.901,1.574,2.086,2.623,0.889,5.246
			c-1.186,2.629-3.876,3.153-1.79,5.252c2.092,2.098,4.777-0.525,2.092,2.098c-2.684,2.63-0.302,4.729-2.684,2.63
			c-2.383-2.104-12.529-23.624-10.739-16.805c1.789,6.825,12.527,19.427,12.527,22.575c0,3.146-6.264,0.523-3.284,4.202
			c2.987,3.672,4.481-2.623,6.271,0c0,0,0.37,5.511-0.753,5.116c-1.11-0.39,0,1.178,0,3.146c0,1.976,0.229,3.153-1.783,2.363
			c-2.019-0.783-4.702-5.51-4.475-3.146c0.223,2.363,3.357,4.72,5.37,7.479c2.011,2.759,2.906,3.148,3.135,5.512
			c0.221,2.363,0.667,5.905-0.901,4.728c-1.569-1.186-3.357-1.186-4.696-2.759c-1.34-1.573,0.221-6.301-1.34-5.905
			c-1.567,0.395-1.794,4.727-3.357,2.758c-1.567-1.968-2.24-1.185-3.807-3.938c-1.567-2.759-2.66-1.573-3.117-4.728
			c-0.463-3.146-0.913-2.759-1.58-4.72c-0.469-1.377-7.134-11.165-11.126-16.965c0.438-0.957,0.863-1.828,1.277-2.556
			c2.685-4.721,1.346,2.363,2.685-4.721c1.339-7.085-4.696-1.179-4.696-1.179l0.667-8.271c0,0-2.679,2.364-5.369,2.364
			c-2.685,0-4.025,1.179-7.381,0c-3.357-1.185,3.356-3.548-3.357-1.185c-6.714,2.363-6.714,7.091-10.738,5.905
			c-4.03-1.178-4.702-1.178-7.387,0c-2.684,1.186-0.672-5.905,1.346-8.269c2.011-2.358,4.696-9.448,4.696-9.448
			c-6.042,2.363-3.357,11.812-6.042,2.363c-2.684-9.448-2.684-9.448-2.684-9.448s4.03-2.364,6.713-2.364
			c2.685,0,6.042-3.543,6.042-3.543l-5.375-4.72c0,0,8.726-4.722,10.744-8.271c1.068-1.876,1.76-2.425,2.574-2.882
			c-0.185-0.209-0.364-0.4-0.562-0.66c-5.369-7.084-5.369-7.084-5.369-7.084l2.684-8.27c4.03-7.085,4.03-7.085,4.03-7.085
			s-0.673-0.654,2.685-7.412c3.356-6.764,8.097-8.22,6.035-9.12c-5.369-2.364-7.381,1.178-11.404,1.178c-4.03,0-8.06,0-8.06,0
			c-10.066-10.627-5.37-5.906-10.066-10.627c-4.696-4.728-8.054-3.542-8.054-3.542s-0.672-7.091,2.685-9.448
			c3.35-2.363,4.03,1.178,8.052,0c4.025-1.178-1.418-3.079,0-7.091c3.357-9.448,0-4.721,3.357-9.448
			c3.357-4.721-6.041,2.364,3.357-4.721c9.393-7.085,9.393-7.085,9.393-7.085s-7.38,2.357-11.404,1.179
			c-4.03-1.179-3.357,0-7.387-1.179c-4.03-1.185-4.03-1.185-4.03-1.185s1.283-4.024,1.283-7.172s0-3.147,3.58-5.511
			c3.579-2.363-2.679-2.363,3.579-2.363c4.807,0,3.568-2.771,2.722-4.061c0.426,0.167,1.222-0.136,2.654-2.24
			c2.685-3.938,2.24-3.938,4.917-7.085c2.691-3.146-6.258,1.573-7.603,1.573c-1.345,0-4.925,3.153-9.398,3.153
			c-4.475,0-1.339,4.728-4.475,0c-3.135-4.727-2.691-5.51-0.894-8.664c1.789-3.147,4.03-2.363,5.818-6.294
			c1.79-3.938,1.339-3.938,4.024-6.302c2.685-2.362,2.234-4.726,4.481-8.664c2.234-3.938-4.481,1.58-4.481,1.58l-3.579-2.363
			c0,0,2.684-2.363,4.023-3.938c1.345-1.573,4.036-3.152,5.375-3.942c1.339-0.784,4.475-1.567,4.475-1.567l-8.504-0.791l6.27-10.236
			c0,0-8.06,11.027-12.533,12.595c-4.475,1.579-1.339-2.358-0.895-6.295s0-9.448,0-9.448s-2.234,19.686-5.369,23.624
			c-3.135,3.938-2.685-3.938-2.685-3.938s-2.685,8.66-4.03,9.448c-1.345,0.784-2.685,4.722-4.925,4.722
			c-2.234,0-1.339,6.301-2.234,0c-0.895-6.294,8.485-9.344,3.579-11.812c-3.135-1.574-0.895-4.722,0-7.868
			c0.605-2.116,0.599-5.653,1.346-8.702c0.358-1.493,0.901-2.862,1.789-3.9c2.679-3.146,4.475-8.658,4.475-8.658l-11.188,17.322
			c0,0-3.58,4.722-4.024,1.575c-0.45-3.154,0.444-6.301,1.339-9.449c0.895-3.153,0.895-3.153,1.79-7.091
			c0.895-3.931,3.579-6.294,3.579-6.294s0.26-1.81,1.167-3.37c-0.235,0.074-0.444,0.154-0.716,0.216
			c-3.579,0.791-6.715,1.574-6.715,1.574s1.346-7.084,2.685-7.875c1.339-0.784,0.895-3.931,3.579-5.511
			c2.685-1.574,2.685-1.574,2.685-1.574l-3.135-4.721l2.691-5.518c3.129-6.295,5.369-11.805,5.369-11.805s3.135-4.729,5.369-6.302
			s4.475-8.664,4.475-8.664s-11.634,8.664-17.002,17.322c-5.369,8.665-8.06,11.813-9.85,12.602
			c-1.789,0.785-5.813,3.148-5.813,3.148l-1.345-8.659l4.023-7.874l-4.468,0.783l1.339-7.085l3.129-5.511l-5.813,1.575
			c0,0,3.135-13.387,6.715-21.261c3.58-7.875,3.58-7.875,3.58-7.875c3.579-5.51-2.691-1.574-2.691-1.574l1.789-12.596
			c2.691-7.089-1.339-0.789,2.691-7.089c4.024-6.301,3.136-5.512,5.369-10.239c2.235-4.72,3.58-8.658,3.58-8.658
			s-4.474,6.301-7.603,9.449c-3.135,3.147-4.481,7.09-7.616,10.238c-3.129,3.147-3.129,5.511-5.369,9.448
			c-2.235,3.937-4.918,13.385-4.918,7.085c0-6.295,1.79-14.17,1.79-14.17l-1.79,7.875l-4.919,8.658l-3.135,2.365
			c0,0-1.345-6.301-0.901-8.666c0.451-2.357-1.79-6.295,0-7.875c1.796-1.574,4.036-3.937,4.925-7.085
			c0.901-3.147,0.901-3.147,0.901-3.147l-7.165,4.722l0.45-9.448l1.34-8.665c3.585-4.721,7.165-9.443,7.165-9.443
			c2.585-4.555,6.405-13.472,6.683-14.114c-2.61,3.389-6.023,7.622-8.029,9.388c-3.579,3.147-7.608,7.874-7.608,7.874l-5.37,8.659
			c0,0,0-7.084,0.451-9.448c0.444-2.358,1.79-7.876,2.234-11.023c0.445-3.147,0-9.448-0.895-7.091
			c-0.895,2.364-5.82,17.323-6.264,19.686c-0.444,2.364,0.444,5.512-1.79,6.301c-2.24,0.791-3.135,5.511-4.925,1.574
			c-1.789-3.932-3.196-10.239-3.196-10.239l6.333-3.931l-6.333-0.79c0,0,9.591-2.302,6.333-7.085c-2.691-3.937,0,0-2.691-3.937
			c-2.679-3.938-3.129,0-2.679-3.938c0.445-3.938,4.024-4.727,4.024-4.727h6.27c0,0,0-4.721,2.234-7.875
			c0.889-1.253,1.567-2.246,2.198-3.153c-4.462-0.766-8.911,1.58-8.911,1.58l2.691-7.875c0,0,2.234-2.357,4.917-6.301
			c2.685-3.931,7.61-11.806,9.4-13.379c1.413-1.247,2.826-4.438,4.239-6.511c-4.054,4.486-16.68,17.699-16.322,15.169
			c0.444-3.147,1.789-10.238,1.789-10.238l-4.925,12.602l-2.684,4.722l-3.129,3.937l-2.752-0.79l-2.851-5.511
			c0,0,2.345-5.511,2.851-6.294c0.513-0.791-2.851-1.574-2.851-1.574l2.851-3.153l-2.851-2.357l6.047-2.364l-3.196-6.3
			c0.062-3.938-2.851-7.875-2.851-7.875s6.948-3.148,5.603-3.148s-5.603-3.937-5.603-3.937l-4.69-66.928c0,0,0.894,19.68,0,40.94
			c-0.895,21.26,0,24.414-1.346,30.708c-1.339,6.301-1.339,22.833-3.128,18.903c-1.796-3.943-1.796-7.875-5.819-11.818
			c-4.025-3.931,1.345,5.141,2.684,10.836c1.339,5.703,5.376,10.43,4.474,12.787c-0.894,2.364-5.369-7.875-5.369-5.511
			s0.716,2.364,2.82,9.449c2.104,7.091,1.709,13.459,0,11.812c-3.264-3.147-4.425-0.784-6.079-7.084
			c-1.667-6.301,0.123-10.238-1.667-6.301c-1.789,3.937-2.678-15.75-2.678-15.75l-2.246,13.385c0,0-12.528-25.456-12.528-21.784
			c0,3.678,14.57,26.247,16.539,38.848c3.154,10.498,6.437,16.274,4.944,15.218c-1.487-1.042-6.265-0.802-4.475,0.124
			c1.79,0.932,4.475,3.029,4.171,5.129c-0.296,2.097-2.727,3.678-5.542,0c-2.807-3.672-5.492,0-2.807-6.295
			c2.684-6.301-0.6-1.581-2.685-2.104c-2.086-0.525,0.296-3.672,0.895-7.875c0.599-4.197,1.79-4.721-1.79-2.098
			c-3.58,2.623-14.021-26.247-13.725-22.575c0.302,3.678,10.441,24.673,11.336,28.875c0.901,4.196-8.949,0-7.159,1.574
			c1.79,1.573,8.652,3.147,7.757,5.245c-0.895,2.104-5.072,1.056-3.579,3.153c1.486,2.1,3.276,3.882,4.474,4.302
			c1.197,0.426-2.389,1.999-3.283,3.574c-0.895,1.574,2.085,2.622,0.894,5.245c-1.191,2.628-3.875,3.153-1.789,5.251
			c2.091,2.104,4.77-0.523,2.091,2.104c-2.691,2.623-0.302,4.722-2.691,2.623c-2.381-2.104-12.527-23.624-10.737-16.799
			c1.79,6.82,12.527,19.421,12.527,22.569c0,3.153-6.258,0.531-3.276,4.203c2.981,3.672,4.474-2.623,6.264,0
			c0,0,0.37,5.51-0.747,5.116c-1.117-0.389,0,1.186,0,3.147c0,1.975,0.229,3.154-1.79,2.363c-2.011-0.784-4.696-5.51-4.474-3.147
			c0.221,2.363,3.356,4.722,5.369,7.479c2.011,2.76,2.912,3.154,3.135,5.512c0.221,2.364,0.666,5.906-0.895,4.728
			c-1.567-1.179-3.357-1.179-4.696-2.759c-1.345-1.573,0.223-6.301-1.345-5.906c-1.567,0.395-1.79,4.727-3.357,2.758
			c-1.567-1.968-2.235-1.178-3.803-3.937c-1.567-2.758-2.666-1.573-3.123-4.728c-0.456-3.147-0.907-2.751-1.58-4.72
			c-0.667-1.969-14.095-21.261-14.095-21.261s10.22,30.054,14.99,38.454c4.77,8.399,2.685,2.098,6.566,10.497
			c3.882,8.399,5.969,14.177,1.79,9.973c-4.179-4.202-2.981-4.197-7.461-8.398c-4.475-4.197-5.072-5.247-10.146-9.973
			c-5.066-4.728-7.751-8.923-3.875-1.05c3.875,7.876,1.789,2.623,8.06,15.219c6.258,12.601,9.542,17.854,9.244,19.951
			c-0.295,2.098,0.298,1.574-4.474,0c-4.77-1.58-7.165-1.432-3.881,1.384c3.282,2.813,4.776,1.239,6.862,5.967
			c2.085,4.721,5.072,3.672,2.085,4.721c-2.974,1.049-5.961,4.202-2.678,4.202c3.282,0,3.875-4.202,5.072,0
			c1.191,4.203,0.889,7.344-0.901,6.296c-1.789-1.049,1.79-3.789-3.875,0.209c-5.666,3.993-8.06,5.566-4.179,6.091
			c3.882,0.524,4.179-3.147,5.967,0c1.79,3.154,2.086,3.679,2.685,5.252c0.599,1.574,1.191-2.098,2.389,0
			c1.197,2.099,3.16,3.672,2.918,4.721c-0.233,1.056-0.537,3.154-2.326,3.679c-1.79,0.525-3.876,5.252-3.876,5.252
			s1.494,3.672,5.074,0c3.579-3.678,6.264,1.166,5.665,1.629c-0.593,0.47,0,5.189-2.685,5.189c-2.684,0-6.264,4.203-7.757,0
			c-1.494-4.196-8.651-11.545-14.021-16.273c-5.369-4.721-4.468-3.147-0.296,3.679c4.179,6.826,5.969,6.882,8.949,14.465
			c2.987,7.578,5.967,10.732,4.479,9.159c-1.492-1.581-4.479-2.104-7.762-5.253c-3.284-3.146-6.265-4.727-5.667-2.622
			c0.593,2.099-0.296,1.313,3.284,8.271c3.579,6.948,6.862,10.626,4.474,9.571c-2.389-1.044-2.981-1.575-6.264-4.722
			c-3.282-3.147-3.135-3.672-8.43-6.294c-5.295-2.629-7.677-5.777-12.454-8.931c-4.777-3.146-8.061-7.868-6.566-4.196
			c1.493,3.672,1.196,1.05,5.967,9.973c4.77,8.923,6.264,9.8,8.054,14.354c1.789,4.543-2.981,0.698-6.264,0
			c-3.277-0.709-5.672-0.179,1.19,2.186c6.862,2.357,6.27,4.462,9.251,6.554c2.981,2.104,5.671,0.531,2.981,2.104
			c-2.216,1.302-5.456,0.45-8.023,0.117c-0.543-0.067-1.055-0.117-1.518-0.117c-2.691,0,1.79,5.776,6.56,6.826
			c4.771,1.049,6.56,3.672,6.56,3.672s-2.974,1.049-3.875,4.201c-0.895,3.148,0.296,4.197-1.191,6.295
			c-1.494,2.099-6.264,1.574-5.671,3.679c0.599,2.098,2.085,0,6.27,1.049c4.171,1.049,4.468,1.574,7.455,3.672
			c2.986,2.104,4.474,1.055,2.986,2.104c-1.431,1.007-5.603,2.013-4.874,3.024c-0.075-0.358,0.579-0.723,4.571,0.123
			c7.462,1.574,5.074,2.099,1.79,6.301c-3.276,4.197-5.671,8.399-2.684,6.295c2.986-2.098,2.389-3.147,5.665-3.673
			c3.284-0.523,4.183,0.525,3.579,2.1c-0.593,1.573,2.092,2.135,2.092,2.135s0.302,9.418,1.643,10.991
			c1.339,1.573,4.917-3.937,5.369,0c0.45,3.937,0,9.448-2.241,7.875c-2.232-1.575-4.468,5.275-6.258,0.271
			c-1.789-4.998-4.03-11.299-5.824-10.51c-1.79,0.791,0.899,10.239-1.34,7.876c-2.24-2.364-6.264-7.876-6.708-10.239
			c-0.451-2.363-4.03-4.721-4.03-2.363c0,2.363,0.895,8.664-1.34,6.301c-2.24-2.363-6.27,1.574-7.615-3.146
			c-1.34-4.722-1.34-0.791-3.58-6.301c-2.233-5.512-2.233-5.512-2.233-5.512s1.79,7.091-2.234,6.301
			c-4.03-0.789-5.82,2.357-10.745-2.364c-4.917-4.727-10.288-10.237-8.498-5.51c1.79,4.722,7.159,15.749,4.468,10.231
			c-2.678-5.51,0,1.579-8.947-5.51c-8.95-7.085-10.295-11.023-8.95-7.085c1.346,3.937,7.61,12.595,11.64,17.321
			c4.024,4.728,5.814,12.145,5.814,12.375c0,0.221-1.79-4.956-1.79,0c0,4.949,3.135,1.356,4.925,0.005
			c1.79-1.357,3.129,2.525,3.129,2.525s-3.58,7.145-1.79,8.72c1.79,1.572,0.451,7.085,2.685,7.873c2.24,0.784,5.819,0,6.27,3.938
			c0.111,0.981,0.334,1.523,0.63,1.846c0.901,0.955,2.499-0.075,3.838,2.876c1.79,3.937,8.955,9.447,6.271,8.656
			c-2.691-0.783-6.714-3.931-10.738-6.294c-4.03-2.362-4.48,0.79-7.165,0.79c-2.685,0-0.895,8.813-4.919,5.585
			c-4.03-3.228-2.24-2.437-10.743-5.585c-8.499-3.152,3.584,9.442,8.503,13.38c4.918,3.937,4.918,7.09,6.264,10.244
			c1.345,3.146-0.895,4.721-0.895,4.721s-1.339-1.574-6.708,0c-5.37,1.574-7.61-1.574-5.37,1.574c2.235,3.147,4.024-1.574,9.393,0
			c5.37,1.573,7.16,1.11,7.16,1.11l-2.685,7.554c0,0,0,1.574,3.135,0c3.129-1.58,3.129-1.58,3.129-1.58s3.135-3.147,5.369-2.357
			c2.241,0.784,1.79-0.179,2.241,4.635c0.45,4.813,0.895,9.535,2.24,9.535c1.346,0,4.474,0,2.233,4.728
			c-2.233,4.721-2.233,8.657-5.813,7.873c-3.58-0.789-4.03-0.789-7.16-3.152c-3.135-2.357,0.445,2.363-3.135-2.357
			c-3.579-4.728-4.48-12.603-5.369-10.239c-0.901,2.364,0.444,9.449-1.346,8.666c-1.789-0.79-1.345-4.729-4.022-5.518
			c-2.691-0.784-3.135,3.937-4.925,0c-1.79-3.938,0.895-0.784-1.79-3.938c-2.685-3.146-2.24,2.365-2.24,2.365
			s-4.468-2.365-6.709-5.512c-2.24-3.147-2.24-3.147-2.24-3.147s-2.685,2.363,0,6.294c2.684,3.938,3.579,5.518,4.919,10.239
			c1.345,4.727,3.135,6.399,3.135,6.399h-3.58c4.03,6.195,4.247,8.381,6.715,9.35c4.024,1.574,6.264,0,6.264,0l5.82,7.084
			c0,0,6.264,5.512,4.468,4.728c-1.789-0.79-14.317-1.573-15.662-3.153c-1.339-1.574,0.456-2.358-5.814-4.722
			c-6.061-2.283-5.024-0.173-10.208-4.294c0.272-0.674,0.117-0.821-0.525-0.426c-0.005,0-0.005,0-0.005,0
			c-5.82-4.728-5.82-4.728-5.82-4.728s-1.068,2.548,2.284,7.634c-5.307,4.733-12.102,11.774-13.547,15.848
			c-1.494,4.202-5.072,0-7.757,0c-2.684,0-2.091-4.721-2.684-5.19c-0.593-0.462,2.085-5.301,5.665-1.629c3.58,3.672,5.073,0,5.073,0
			s-2.085-4.728-3.875-5.252c-1.79-0.524-2.086-2.623-2.327-3.671c-0.235-1.05,1.728-2.624,2.919-4.729
			c1.197-2.098,1.79,1.574,2.395,0c0.592-1.573,0.888-2.098,2.678-5.245c1.79-3.154,2.086,0.525,5.968,0
			c3.882-0.524,1.493-2.104-4.178-6.098c-5.665-3.998-2.086-1.252-3.876-0.203c-1.789,1.049-2.085-2.099-0.894-6.301
			c1.19-4.197,1.789,0,5.066,0c3.282,0,0.302-3.147-2.679-4.197c-2.987-1.055,0,0,2.086-4.727c2.086-4.728,3.579-3.154,6.862-5.961
			c3.284-2.814,0.895-2.963-3.876-1.389c-4.776,1.573-4.184,2.098-4.48,0c-0.296-2.099,2.987-7.345,9.251-19.946
			s4.179-7.351,8.054-15.224c3.875-7.876,1.197-3.672-3.875,1.049c-5.074,4.728-5.672,5.775-10.146,9.973
			c-4.475,4.202-3.284,4.202-7.455,8.399c-4.185,4.201-2.093-1.575,1.789-9.973c3.876-8.399,1.79-2.099,6.56-10.498
			c4.771-8.398,14.991-38.453,14.991-38.453s-13.423,19.291-14.096,21.26c-0.673,1.969-1.123,1.574-1.58,4.722
			c-0.458,3.153-1.556,1.974-3.123,4.727c-1.561,2.759-2.233,1.969-3.801,3.938c-1.567,1.969-1.79-2.363-3.357-2.753
			c-1.568-0.394,0,4.326-1.339,5.906c-1.34,1.573-3.129,1.573-4.696,2.753c-1.567,1.179-1.124-2.357-0.901-4.721
			c0.228-2.364,1.123-2.76,3.135-5.512c2.012-2.759,5.147-5.122,5.369-7.485c0.222-2.358-2.457,2.363-4.474,3.147
			c-2.013,0.79-1.79-0.39-1.79-2.358s1.117-3.541,0-3.147c-1.118,0.39-0.748-5.121-0.748-5.121c1.79-2.624,3.284,3.672,6.271,0
			c2.981-3.672-3.284-1.049-3.284-4.197c0-3.153,10.738-15.749,12.528-22.574c1.789-6.826-8.356,14.7-10.738,16.798
			c-2.389,2.104,0,0-2.685-2.623c-2.684-2.629,0,0,2.086-2.097c2.092-2.104-0.599-2.63-1.79-5.253s1.79-3.672,0.895-5.251
			c-0.895-1.574-4.474-3.148-3.284-3.567c1.197-0.421,2.987-2.209,4.481-4.308c1.487-2.099-2.691-1.05-3.579-3.146
			c-0.902-2.1,5.961-3.672,7.75-5.253c1.79-1.573-8.052,2.629-7.158-1.573c0.894-4.197,11.034-25.197,11.336-28.869
			c0.303-3.68-10.146,25.197-13.718,22.567c-3.586-2.622-2.395-2.098-1.796,2.104c0.599,4.197,2.981,7.352,0.895,7.875
			c-2.086,0.524-5.369-4.203-2.685,2.099c2.685,6.295,0,2.622-2.807,6.295c-2.814,3.678-5.247,2.104-5.543,0
			c-0.296-2.099,2.383-4.197,4.173-5.122c1.789-0.933-2.981-1.173-4.469-0.123c-1.492,1.048,1.79-4.729,4.944-15.226
			c1.962-12.596,16.533-35.171,16.533-38.843c0-3.678-12.528,21.786-12.528,21.786l-2.24-13.387c0,0-0.895,19.681-2.685,15.743
			c-1.789-3.932,0,0-1.659,6.301c-1.661,6.301-2.82,3.938-6.085,7.092c-1.704,1.641-2.104-4.728,0-11.813
			c2.104-7.091,2.821-7.091,2.821-9.454s-4.475,7.874-5.37,5.518c-0.895-2.365,3.135-7.085,4.475-12.794
			c1.339-5.696,6.713-14.768,2.684-10.831c-4.024,3.938-4.024,7.876-5.814,11.813c-1.789,3.932-1.789-12.602-3.135-18.902
			c-1.345-6.295-0.444-9.448-1.345-30.709c-0.889-21.253,0-40.94,0-40.94l-4.69,66.927c0,0-4.259,3.938-5.604,3.938
			c-1.339,0,5.604,3.153,5.604,3.153s-2.913,3.932-2.852,7.868l-3.197,6.302l6.049,2.363l-2.852,2.364l2.852,3.146
			c0,0-3.357,0.784-2.852,1.574c0.507,0.789,2.852,6.3,2.852,6.3l-2.852,5.513l-2.751,0.788l-3.129-3.937l-2.685-4.728
			l-4.925-12.596c0,0,1.345,7.085,1.79,10.232c0.358,2.53-12.268-10.682-16.322-15.163c1.413,2.067,2.833,5.258,4.239,6.505
			c1.79,1.573,6.714,9.447,9.405,13.385c2.679,3.938,4.918,6.301,4.918,6.301l2.685,7.876c0,0-4.449-2.347-8.911-1.581
			c0.635,0.901,1.308,1.901,2.196,3.153c2.24,3.148,2.24,7.876,2.24,7.876h6.265c0,0,3.579,0.783,4.022,4.72
			c0.458,3.938,0,0-2.678,3.938c-2.691,3.938,0,0-2.691,3.938c-3.258,4.782,6.332,7.091,6.332,7.091l-6.332,0.784l6.332,3.937
			c0,0-1.407,6.301-3.197,10.238c-1.789,3.938-2.684-0.789-4.923-1.574c-2.235-0.788-1.34-3.942-1.79-6.3
			c-0.445-2.364-5.37-17.323-6.265-19.686c-0.895-2.365-1.339,3.937-0.895,7.084c0.445,3.147,1.79,8.665,2.235,11.021
			c0.456,2.364,0.456,9.455,0.456,9.455l-5.369-8.664c0,0-4.036-4.722-7.615-7.874c-2-1.765-5.419-5.999-8.023-9.387
			c0.271,0.641,4.098,9.56,6.684,14.114c0,0,3.58,4.72,7.159,9.448l1.339,8.656l0.457,9.449l-7.165-4.721c0,0,0,0,0.895,3.147
			c0.895,3.153,3.135,5.511,4.925,7.09c1.79,1.574-0.451,5.512,0,7.876c0.444,2.363-0.901,8.657-0.901,8.657l-3.129-2.363
			l-4.918-8.658l-1.79-7.875c0,0,1.79,7.875,1.79,14.176c0,6.295-2.691-3.153-4.925-7.091c-2.24-3.938-2.24-6.301-5.369-9.448
			c-3.135-3.146-4.481-7.085-7.61-10.239c-3.129-3.146-7.61-9.447-7.61-9.447s1.346,3.938,3.58,8.664
			c2.234,4.722,1.345,3.938,5.369,10.232c4.031,6.301,0,0,2.691,7.091l1.79,12.596c0,0-6.27-3.931-2.691,1.574c0,0,0,0,3.58,7.881
			c3.579,7.868,6.713,21.253,6.713,21.253l-5.813-1.573l3.129,5.511l1.339,7.091l-4.468-0.79l4.022,7.875l-1.345,8.658
			c0,0-1.309-0.765-2.765-1.567c0.68-0.717,0.839-1.124,0.087-1.457c-1.654-0.728-3-0.895-4.172-0.777
			c-1.777-1.414-4.382-4.802-8.812-11.941c-3.666-5.924-10.257-11.837-14.071-14.996c-0.063-0.549-0.025-1.147,0.209-1.808
			c3.357-9.45,0-4.729,3.357-9.45c3.351-4.726-6.048,2.358,3.351-4.726c9.398-7.085,9.398-7.085,9.398-7.085
			s-7.381,2.358-11.417,1.179c-4.023-1.179-3.351,0-7.381-1.179c-4.022-1.186-4.022-1.186-4.022-1.186s1.283-4.017,1.283-7.171
			c0-3.146,0-3.146,3.579-5.511c3.58-2.363-2.684-2.363,3.58-2.363c4.802,0,3.555-2.765,2.715-4.061
			c0.432,0.166,1.222-0.137,2.653-2.233c2.685-3.938,2.234-3.938,4.925-7.093c2.679-3.146-6.27,1.575-7.608,1.575
			c-1.34,0-4.918,3.154-9.399,3.154c-4.474,0-1.339,4.727-4.474,0c-3.129-4.729-2.685-5.513-0.895-8.666
			c1.79-3.146,4.03-2.357,5.82-6.295c1.789-3.937,1.338-3.937,4.03-6.301c2.677-2.363,2.233-4.727,4.467-8.665
			c2.24-3.931-4.467,1.581-4.467,1.581l-3.58-2.364c0,0,2.679-2.363,4.024-3.937c1.345-1.573,4.023-3.153,5.37-3.937
			c1.345-0.784,4.474-1.575,4.474-1.575l-8.499-0.79l6.258-10.237c0,0-8.046,11.027-12.527,12.603
			c-4.474,1.572-1.339-2.365-0.895-6.302c0.451-3.931,0-9.448,0-9.448s-2.24,19.687-5.369,23.623
			c-3.129,3.938-2.685-3.937-2.685-3.937s-2.684,8.658-4.024,9.448c-1.345,0.783-2.689,4.72-4.925,4.72c-2.24,0-1.345,6.302-2.24,0
			c-0.895-6.294,8.485-9.337,3.586-11.811c-3.135-1.568-0.901-4.722,0-7.869c0.599-2.116,0.593-5.652,1.333-8.7
			c0.37-1.494,0.913-2.864,1.796-3.9c2.685-3.148,4.474-8.658,4.474-8.658l-11.188,17.322c0,0-3.579,4.728-4.03,1.573
			c-0.444-3.154,0.451-6.294,1.345-9.448c0.902-3.146,0.902-3.146,1.79-7.085c0.895-3.938,3.58-6.301,3.58-6.301
			s0.259-1.808,1.16-3.369c-0.221,0.075-0.438,0.154-0.71,0.216c-3.579,0.79-6.713,1.574-6.713,1.574s1.339-7.085,2.684-7.869
			c1.346-0.789,0.895-3.938,3.58-5.51c2.691-1.581,2.691-1.581,2.691-1.581l-3.136-4.72l2.685-5.518
			c3.129-6.295,5.37-11.807,5.37-11.807s3.128-4.727,5.369-6.3c2.24-1.573,4.474-8.666,4.474-8.666s-11.632,8.666-17.002,17.33
			c-5.375,8.658-8.052,11.806-9.842,12.597c-1.79,0.783-5.82,3.146-5.82,3.146l-1.34-8.659l4.025-7.874l-4.475,0.79l1.34-7.091
			l3.135-5.512l-5.814,1.574c0,0,3.129-13.385,6.709-21.26c3.579-7.875,3.579-7.875,3.579-7.875
			c3.586-5.511-2.685-1.573-2.685-1.573l1.79-12.596c2.685-7.091-1.345-0.79,2.685-7.091c4.03-6.294,3.135-5.511,5.375-10.231
			c2.234-4.727,3.58-8.665,3.58-8.665s-4.481,6.301-7.616,9.448c-3.129,3.154-4.468,7.091-7.603,10.239
			c-3.135,3.146-3.135,5.51-5.37,9.447c-2.24,3.938-4.925,13.385-4.925,7.085c0-6.296,1.79-14.169,1.79-14.169l-1.79,7.873
			l-4.925,8.659l-3.127,2.363c0,0-1.34-6.301-0.895-8.664c0.444-2.358-1.79-6.295,0-7.869c1.789-1.579,4.022-3.942,4.925-7.091
			c0.888-3.147,0.888-3.147,0.888-3.147l-7.158,4.722l0.451-9.448l1.339-8.659c3.579-4.728,7.159-9.448,7.159-9.448
			c2.592-4.555,6.418-13.472,6.689-14.114c-2.61,3.388-6.023,7.622-8.028,9.387c-3.58,3.146-7.609,7.875-7.609,7.875l-5.369,8.658
			c0,0,0-7.085,0.45-9.448c0.445-2.357,1.79-7.875,2.24-11.021c0.445-3.148,0-9.449-0.9-7.084
			c-0.895,2.357-5.813,17.322-6.265,19.686c-0.45,2.358,0.451,5.511-1.789,6.301c-2.241,0.784-3.129,5.511-4.919,1.567
			c-1.796-3.931-3.197-10.232-3.197-10.232l6.326-3.938l-6.326-0.789c0,0,9.59-2.303,6.326-7.084c-2.685-3.938,0,0-2.685-3.938
			c-2.684-3.938-3.135,0-2.684-3.938c0.444-3.937,4.03-4.727,4.03-4.727h6.257c0,0,0-4.721,2.24-7.875
			c0.895-1.253,1.567-2.246,2.203-3.153c-4.469-0.76-8.912,1.585-8.912,1.585l2.679-7.875c0,0,2.24-2.363,4.925-6.301
			c2.69-3.937,7.61-11.811,9.399-13.386c1.414-1.246,2.833-4.437,4.24-6.51c-4.049,4.487-16.682,17.7-16.324,15.169
			c0.451-3.148,1.79-10.231,1.79-10.231l-4.919,12.595l-2.691,4.722l-3.129,3.943l-2.746-0.79l-2.857-5.512
			c0,0,2.351-5.51,2.857-6.301c0.506-0.79-2.857-1.574-2.857-1.574l2.857-3.147l-2.857-2.364l6.054-2.363l-3.197-6.301
			c0.062-3.937-2.857-7.874-2.857-7.874s6.942-3.148,5.603-3.148c-1.345,0-5.603-3.937-5.603-3.937l-4.69-66.928
			c0,0,0.895,19.687,0,40.94c-0.895,21.26,0,24.414-1.339,30.708c-1.346,6.301-1.346,22.834-3.135,18.902
			c-1.79-3.937-1.79-7.874-5.82-11.812c-4.024-3.938,1.345,5.135,2.684,10.831c1.346,5.703,5.37,10.43,4.481,12.793
			c-0.901,2.357-5.369-7.881-5.369-5.518c0,2.364,0.716,2.364,2.813,9.449c2.104,7.09,1.704,13.458,0,11.817
			c-3.265-3.153-4.418-0.79-6.079-7.091c-1.66-6.301,0.13-10.238-1.66-6.301c-1.79,3.938-2.691-15.742-2.691-15.742l-2.234,13.385
			c0,0-12.527-25.462-12.527-21.786c0,3.673,14.563,26.241,16.525,38.843c3.16,10.497,6.444,16.273,4.95,15.225
			c-1.494-1.049-6.264-0.81-4.475,0.123c1.79,0.925,4.475,3.023,4.178,5.122c-0.296,2.098-2.733,3.679-5.542,0
			c-2.814-3.672-5.493,0-2.814-6.294c2.691-6.301-0.593-1.575-2.679-2.104c-2.092-0.525,0.296-3.672,0.889-7.869
			c0.599-4.203,1.79-4.728-1.79-2.104c-3.579,2.622-14.021-26.247-13.725-22.569c0.303,3.673,10.442,24.673,11.344,28.87
			c0.888,4.202-8.949,0-7.159,1.572c1.789,1.575,8.646,3.154,7.751,5.253c-0.895,2.098-5.074,1.048-3.58,3.146
			c1.493,2.099,3.283,3.882,4.475,4.308c1.19,0.42-2.389,1.993-3.277,3.567c-0.901,1.574,2.086,2.629,0.889,5.246
			c-1.191,2.628-3.876,3.153-1.79,5.251c2.092,2.104,4.776-0.525,2.092,2.104c-2.685,2.622-0.302,4.722-2.685,2.622
			c-2.389-2.097-12.527-23.623-10.739-16.798c1.79,6.82,12.528,19.421,12.528,22.569c0,3.153-6.271,0.53-3.283,4.202
			s4.475-2.622,6.265,0c0,0,0.376,5.511-0.748,5.123c-1.117-0.396,0,1.178,0,3.141c0,1.976,0.223,3.153-1.79,2.363
			c-2.012-0.783-4.696-5.504-4.468-3.146c0.223,2.363,3.357,4.728,5.369,7.479c2.012,2.759,2.901,3.153,3.129,5.512
			c0.229,2.363,0.672,5.905-0.895,4.727c-1.567-1.178-3.357-1.178-4.702-2.758c-1.339-1.574,0.229-6.295-1.339-5.899
			c-1.562,0.388-1.79,4.721-3.352,2.751c-1.567-1.968-2.246-1.179-3.807-3.937c-1.567-2.753-2.661-1.574-3.117-4.728
			c-0.463-3.146-0.913-2.751-1.58-4.721c-0.679-1.969-14.096-21.26-14.096-21.26s10.214,30.054,14.985,38.454
			c4.776,8.398,2.69,2.098,6.566,10.497c3.875,8.399,5.968,14.176,1.789,9.973c-4.171-4.202-2.986-4.196-7.455-8.399
			c-4.479-4.196-5.072-5.245-10.145-9.973c-5.072-4.727-7.757-8.924-3.876-1.049c3.876,7.875,1.79,2.623,8.048,15.219
			c6.271,12.602,9.553,17.854,9.257,19.951c-0.302,2.099,0.296,1.574-4.481,0c-4.776-1.573-7.157-1.432-3.875,1.383
			c3.284,2.814,4.77,1.241,6.862,5.967c2.086,4.722,5.074,3.672,2.086,4.722c-2.987,1.055-5.967,4.202-2.685,4.202
			c3.277,0,3.882-4.202,5.066,0c1.197,4.204,0.902,7.351-0.888,6.296c-1.79-1.044,1.79-3.79-3.882,0.209
			c-5.671,3.993-8.054,5.572-4.177,6.097c3.881,0.52,4.177-3.152,5.973,0c1.79,3.147,2.086,3.672,2.679,5.247
			c0.599,1.572,1.198-2.1,2.388,0c1.191,2.104,3.154,3.677,2.919,4.727c-0.234,1.05-0.531,3.146-2.321,3.672
			c-1.789,0.524-3.875,5.251-3.875,5.251s1.488,3.672,5.066,0c3.586-3.672,6.263,1.167,5.672,1.631c-0.6,0.469,0,5.189-2.691,5.189
			c-2.679,0-6.257,4.202-7.751,0c-1.494-4.197-8.652-11.547-14.022-16.273c-5.369-4.722-4.479-3.147-0.295,3.677
			c4.171,6.826,5.961,6.882,8.947,14.466c2.981,7.579,5.962,10.731,4.469,9.159c-1.487-1.58-4.469-2.104-7.751-5.252
			c-2.457-2.357-4.752-3.833-5.493-3.543c-0.136-3.906-4.881,0.722-4.881,0.722l0.672-8.269c0,0-2.684,2.363-5.369,2.363
			c-2.691,0-4.024,1.178-7.381,0c-3.356-1.186,3.357-3.542-3.356-1.186c-1.458,0.514-2.58,1.136-3.512,1.784
			c-2.202-1.999-3.282-3.204-2.302-0.797c0.382,0.95,0.648,1.476,0.914,1.889c-2.258,2.001-3.172,3.82-5.838,3.031
			c-4.03-1.179-4.703-1.179-7.387,0c-2.685,1.184-0.673-5.907,1.34-8.264c2.018-2.365,4.702-9.448,4.702-9.448
			c-6.042,2.363-3.357,11.805-6.042,2.363c-2.685-9.448-2.685-9.448-2.685-9.448s4.025-2.363,6.715-2.363
			c2.685,0,6.035-3.542,6.035-3.542l-5.369-4.722c0,0,8.726-4.727,10.745-8.27c1.068-1.875,1.759-2.432,2.574-2.882
			c-0.185-0.217-0.364-0.401-0.563-0.66c-5.369-7.085-5.369-7.085-5.369-7.085l2.685-8.27c4.024-7.09,4.024-7.09,4.024-7.09
			s-0.667-0.656,2.689-7.413c3.357-6.757,8.097-8.213,6.037-9.12c-5.369-2.358-7.381,1.178-11.405,1.178c-4.03,0-8.06,0-8.06,0
			c-10.065-10.626-5.369-5.899-10.065-10.626c-4.696-4.728-8.053-3.544-8.053-3.544s-0.672-7.084,2.678-9.447
			c3.357-2.363,4.037,1.185,8.06,0c4.023-1.179-1.419-3.079,0-7.085c3.357-9.448,0-4.727,3.357-9.448
			c3.357-4.727-6.042,2.363,3.357-4.727c9.392-7.085,9.392-7.085,9.392-7.085s-7.38,2.363-11.41,1.178
			c-4.03-1.178-3.351,0-7.381-1.178c-4.03-1.179-4.03-1.179-4.03-1.179s1.283-4.024,1.283-7.171c0-3.154,0-3.154,3.58-5.511
			c3.579-2.363-2.679-2.363,3.579-2.363c4.802,0,3.561-2.771,2.715-4.067c0.433,0.167,1.222-0.136,2.653-2.234
			c2.691-3.937,2.241-3.937,4.925-7.083c2.691-3.154-6.264,1.572-7.603,1.572c-1.345,0-4.925,3.148-9.399,3.148
			c-4.474,0-1.339,4.728-4.474,0c-3.135-4.72-2.691-5.511-0.901-8.658c1.796-3.154,4.036-2.363,5.826-6.301
			c1.79-3.938,1.339-3.938,4.023-6.301c2.685-2.363,2.234-4.72,4.474-8.658c2.241-3.937-4.474,1.574-4.474,1.574l-3.58-2.363
			c0,0,2.685-2.363,4.023-3.931c1.346-1.58,4.03-3.154,5.37-3.944c1.345-0.784,4.479-1.574,4.479-1.574l-8.503-0.784l6.264-10.239
			c0,0-8.054,11.022-12.528,12.596c-4.474,1.573-1.339-2.357-0.894-6.295c0.444-3.937,0-9.454,0-9.454s-2.241,19.693-5.37,23.624
			c-3.135,3.938-2.691-3.931-2.691-3.931s-2.678,8.658-4.022,9.442c-1.346,0.79-2.685,4.728-4.925,4.728c-2.235,0-1.345,6.3-2.235,0
			c-0.899-6.301,8.487-9.344,3.58-11.813c-3.135-1.573-0.895-4.728,0-7.875c0.604-2.11,0.593-5.646,1.34-8.696
			c0.363-1.492,0.907-2.869,1.795-3.906c2.679-3.147,4.468-8.658,4.468-8.658l-11.183,17.322c0,0-3.579,4.728-4.03,1.575
			c-0.45-3.148,0.451-6.295,1.34-9.448c0.901-3.148,0.901-3.148,1.79-7.085c0.899-3.938,3.584-6.301,3.584-6.301
			s0.259-1.808,1.161-3.369c-0.229,0.074-0.445,0.16-0.716,0.216c-3.574,0.79-6.708,1.58-6.708,1.58s1.339-7.084,2.679-7.874
			c1.345-0.785,0.899-3.938,3.584-5.512c2.685-1.579,2.685-1.579,2.685-1.579l-3.135-4.722l2.689-5.511
			c3.13-6.301,5.37-11.812,5.37-11.812s3.129-4.721,5.369-6.301c2.234-1.574,4.474-8.659,4.474-8.659s-11.632,8.659-17.007,17.323
			c-5.37,8.665-8.053,11.812-9.843,12.596c-1.79,0.79-5.814,3.153-5.814,3.153l-1.345-8.665l4.024-7.875l-4.469,0.791l1.34-7.085
			l3.129-5.511l-5.814,1.574c0,0,3.135-13.392,6.715-21.26c3.579-7.875,3.579-7.875,3.579-7.875c3.58-5.511-2.691-1.573-2.691-1.573
			l1.79-12.602c2.691-7.084-1.339-0.79,2.691-7.084c4.024-6.301,3.135-5.518,5.369-10.239c2.235-4.727,3.58-8.658,3.58-8.658
			s-4.48,6.301-7.61,9.449c-3.129,3.147-4.474,7.084-7.608,10.232c-3.129,3.153-3.129,5.511-5.369,9.454
			c-2.235,3.931-4.925,13.386-4.925,7.085c0-6.301,1.789-14.176,1.789-14.176l-1.789,7.875l-4.919,8.665l-3.129,2.357
			c0,0-1.346-6.294-0.901-8.658c0.45-2.364-1.79-6.301,0-7.875c1.789-1.574,4.03-3.938,4.925-7.084
			c0.894-3.154,0.894-3.154,0.894-3.154l-7.158,4.728l0.45-9.448l1.338-8.665c3.58-4.721,7.159-9.448,7.159-9.448
			c2.586-4.554,6.413-13.472,6.684-14.107c-2.604,3.381-6.023,7.621-8.022,9.386c-3.579,3.147-7.608,7.875-7.608,7.875l-5.37,8.658
			c0,0,0-7.084,0.451-9.448c0.444-2.364,1.789-7.875,2.233-11.022c0.444-3.153,0-9.455-0.895-7.091
			c-0.895,2.364-5.82,17.323-6.264,19.687c-0.451,2.363,0.444,5.511-1.79,6.301c-2.24,0.784-3.135,5.511-4.925,1.573
			c-1.79-3.937-3.197-10.238-3.197-10.238l6.332-3.938l-6.332-0.783c0,0,9.591-2.308,6.332-7.091c-2.691-3.937,0,0-2.691-3.937
			c-2.678-3.938-3.127,0-2.678-3.938c0.444-3.937,4.024-4.72,4.024-4.72h6.264c0,0,0-4.722,2.24-7.875
			c0.889-1.253,1.567-2.253,2.197-3.154c-4.461-0.765-8.912,1.58-8.912,1.58l2.685-7.875c0,0,2.24-2.364,4.925-6.301
			c2.685-3.938,7.609-11.813,9.399-13.386c1.407-1.24,2.825-4.437,4.239-6.504c-4.055,4.48-16.682,17.699-16.324,15.163
			c0.445-3.147,1.79-10.232,1.79-10.232l-4.925,12.596l-2.684,4.727l-3.128,3.938l-2.753-0.79l-2.852-5.511
			c0,0,2.346-5.511,2.852-6.301c0.513-0.784-2.852-1.574-2.852-1.574l2.852-3.147l-2.852-2.364l6.048-2.363l-3.197-6.301
			c0.062-3.931-2.852-7.868-2.852-7.868s6.943-3.153,5.604-3.153c-1.346,0-5.604-3.938-5.604-3.938L87.2,32.925
			c0,0,0.889,19.687,0,40.946c-0.9,21.26,0,24.408-1.345,30.709c-1.345,6.3-1.345,22.833-3.135,18.896
			c-1.79-3.938-1.79-7.875-5.814-11.812c-4.023-3.938,1.346,5.135,2.685,10.837c1.339,5.703,5.369,10.423,4.474,12.787
			c-0.895,2.364-5.369-7.875-5.369-5.511c0,2.357,0.716,2.357,2.814,9.448c2.11,7.085,1.709,13.454,0,11.812
			c-3.258-3.154-4.419-0.79-6.073-7.091c-1.667-6.294,0.124-10.232-1.667-6.294c-1.79,3.937-2.684-15.75-2.684-15.75l-2.241,13.386
			c0,0-12.527-25.457-12.527-21.785c0,3.672,14.57,26.247,16.533,38.842c3.153,10.504,6.437,16.274,4.949,15.225
			c-1.494-1.049-6.264-0.802-4.474,0.124s4.474,3.03,4.171,5.128c-0.296,2.099-2.728,3.672-5.542,0
			c-2.809-3.678-5.492,0-2.809-6.301c2.685-6.301-0.599-1.574-2.684-2.099c-2.086-0.524,0.295-3.678,0.895-7.875
			c0.598-4.203,1.789-4.727-1.797-2.098c-3.579,2.623-14.021-26.253-13.717-22.575c0.303,3.672,10.441,24.672,11.336,28.869
			c0.895,4.203-8.948,0-7.158,1.58c1.79,1.574,8.652,3.147,7.751,5.246c-0.889,2.099-5.066,1.049-3.58,3.154
			c1.494,2.098,3.284,3.882,4.481,4.301c1.19,0.419-2.389,1.993-3.284,3.573c-0.895,1.574,2.086,2.623,0.895,5.245
			c-1.191,2.629-3.881,3.148-1.79,5.252c2.092,2.099,4.771-0.524,2.092,2.099c-2.691,2.623-0.303,4.727-2.691,2.623
			c-2.382-2.099-12.527-23.624-10.737-16.798c1.79,6.825,12.527,19.428,12.527,22.575c0,3.147-6.264,0.525-3.282,4.203
			c2.986,3.672,4.48-2.628,6.27,0c0,0,0.37,5.511-0.747,5.116c-1.117-0.395,0,1.179,0,3.147c0,1.969,0.222,3.154-1.79,2.364
			c-2.018-0.791-4.695-5.512-4.474-3.148c0.222,2.357,3.357,4.721,5.369,7.48c2.012,2.752,2.913,3.147,3.136,5.511
			c0.222,2.364,0.667,5.906-0.901,4.721c-1.567-1.179-3.357-1.179-4.697-2.753c-1.339-1.58,0.229-6.3-1.339-5.906
			c-1.567,0.395-1.789,4.721-3.356,2.753c-1.568-1.963-2.241-1.179-3.802-3.931c-1.567-2.759-2.666-1.574-3.123-4.727
			c-0.456-3.148-0.907-2.759-1.579-4.728c-0.667-1.968-14.095-21.26-14.095-21.26s10.22,30.054,14.99,38.453
			c4.77,8.399,2.685,2.104,6.56,10.498c3.882,8.399,5.974,14.175,1.79,9.972c-4.172-4.196-2.981-4.196-7.455-8.393
			c-4.475-4.203-5.074-5.251-10.146-9.979c-5.074-4.721-7.751-8.917-3.876-1.043c3.876,7.875,1.79,2.623,8.06,15.218
			c6.259,12.602,9.542,17.848,9.245,19.945c-0.295,2.104,0.296,1.58-4.48,0c-4.765-1.573-7.159-1.425-3.876,1.389
			c3.284,2.808,4.777,1.241,6.863,5.962c2.085,4.727,5.073,3.678,2.085,4.727c-2.98,1.049-5.961,4.196-2.678,4.196
			c3.276,0,3.875-4.196,5.066,0c1.191,4.203,0.895,7.351-0.895,6.301c-1.79-1.049,1.79-3.795-3.876,0.204
			c-5.671,3.999-8.06,5.572-4.177,6.097c3.882,0.524,4.177-3.147,5.967,0c1.79,3.147,2.086,3.672,2.685,5.245
			c0.599,1.58,1.191-2.098,2.388,0c1.191,2.104,3.153,3.678,2.918,4.728c-0.241,1.049-0.537,3.147-2.327,3.678
			c-1.789,0.518-3.875,5.245-3.875,5.245s1.494,3.672,5.072,0c3.58-3.672,6.257,1.167,5.666,1.629c-0.593,0.469,0,5.19-2.685,5.19
			c-2.684,0-6.263,4.204-7.757,0c-1.493-4.19-8.652-11.546-14.021-16.267c-5.37-4.728-4.475-3.148-0.296,3.671
			c4.171,6.826,5.961,6.887,8.949,14.466c2.987,7.584,5.967,10.731,4.474,9.158c-1.486-1.574-4.474-2.098-7.757-5.245
			c-3.284-3.154-6.264-4.728-5.665-2.629c0.592,2.098-0.296,1.314,3.284,8.27c3.579,6.954,6.862,10.626,4.467,9.578
			c-2.382-1.049-2.981-1.574-6.257-4.721c-3.284-3.154-3.135-3.679-8.43-6.301c-5.295-2.623-7.684-5.776-12.455-8.924
			c-4.776-3.153-8.06-7.875-6.566-4.203c1.494,3.679,1.198,1.05,5.969,9.973c4.77,8.923,6.264,9.806,8.052,14.354
			c1.79,4.542-2.986,0.703-6.264,0c-3.283-0.704-5.671-0.173,1.191,2.184c6.862,2.357,6.27,4.462,9.251,6.562
			c2.981,2.104,5.671,0.53,2.981,2.104c-2.223,1.302-5.456,0.45-8.023,0.11c-0.543-0.068-1.055-0.11-1.518-0.11
			c-2.691,0,1.789,5.769,6.56,6.819c4.77,1.055,6.56,3.678,6.56,3.678s-2.981,1.048-3.876,4.196c-0.894,3.153,0.298,4.203-1.197,6.3
			c-1.486,2.1-6.258,1.575-5.665,3.672c0.599,2.104,2.086,0,6.271,1.05c4.171,1.054,4.468,1.579,7.455,3.678
			c2.98,2.098,4.474,1.048,2.98,2.098c-1.431,1.013-5.597,2.018-4.869,3.024c-0.074-0.351,0.581-0.716,4.573,0.13
			c7.462,1.574,5.074,2.097,1.79,6.294c-3.278,4.203-5.671,8.399-2.685,6.301c2.987-2.099,2.383-3.154,5.666-3.678
			c3.283-0.519,4.178,0.524,3.579,2.104c-0.593,1.574,2.092,2.135,2.092,2.135s0.302,9.412,1.635,10.985
			c1.345,1.581,4.925-3.937,5.375,0c0.451,3.937,0,9.454-2.24,7.875c-2.234-1.574-4.468,5.276-6.264,0.277
			c-1.789-5.004-4.03-11.299-5.82-10.516c-1.789,0.79,0.901,10.238-1.339,7.88c-2.24-2.369-6.264-7.88-6.715-10.238
			c-0.444-2.364-4.03-4.728-4.03-2.364c0,2.364,0.901,8.666-1.339,6.301c-2.24-2.363-6.264,1.573-7.608-3.153
			c-1.34-4.721-1.34-0.784-3.58-6.295c-2.234-5.511-2.234-5.511-2.234-5.511s1.79,7.085-2.234,6.295
			c-4.037-0.784-5.826,2.363-10.744-2.357c-3.147-3.024-6.475-6.357-7.992-7.141v2.907c2.11,5.14,6.431,14.015,3.962,8.954
			C1.999,397.389,2.9,400.104,0,399.062v10.442c2.413,4.251,3.517,8.843,3.517,9.022c0,0.229-1.789-4.948-1.789,0
			c0,4.955,3.128,1.357,4.925,0.006c1.789-1.352,3.128,2.531,3.128,2.531s-3.58,7.139-1.79,8.714c1.79,1.573,0.45,7.085,2.685,7.873
			c2.234,0.791,5.82,0,6.264,3.938c0.117,0.987,0.34,1.524,0.635,1.846c0.902,0.963,2.494-0.074,3.839,2.883
			c1.79,3.937,8.949,9.447,6.27,8.658c-2.689-0.784-6.713-3.938-10.743-6.296c-4.03-2.362-4.474,0.784-7.159,0.784
			s-0.895,8.813-4.925,5.585c-2.592-2.074-2.784-2.492-4.857-3.363v8.867c0.975,0.907,1.876,1.704,2.623,2.297
			c4.919,3.937,4.919,7.084,6.264,10.238c1.345,3.146-0.895,4.722-0.895,4.722s-1.339-1.575-6.715,0
			c-0.45,0.135-0.87,0.223-1.277,0.295v1.636c1.309-0.53,2.968-1.036,5.307-0.352c5.37,1.573,7.16,1.11,7.16,1.11l-2.685,7.548
			c0,0,0,1.573,3.129,0c3.135-1.573,3.135-1.573,3.135-1.573s3.135-3.146,5.369-2.363c2.24,0.784,1.79-0.174,2.24,4.635
			c0.451,4.813,0.895,9.54,2.241,9.54c1.339,0,4.468,0,2.234,4.722c-2.234,4.727-2.234,8.664-5.813,7.873
			c-3.579-0.784-4.03-0.784-7.165-3.146c-3.129-2.363,0.451,2.362-3.129-2.363c-3.58-4.722-4.479-12.596-5.368-10.232
			c-0.901,2.357,0.443,9.448-1.346,8.658c-1.79-0.789-1.345-4.728-4.03-5.511c-0.494-0.142-0.913-0.1-1.277,0.037v22.389
			c0.537-0.179,0.827-0.376,0.827-0.376l5.826,7.085c0,0,6.257,5.511,4.467,4.722c-1.166-0.513-6.9-1.025-11.121-1.76v46.051
			l4.412,4.529H0v5.295l0.382,0.216c0,0,5.82-1.573,7.16,0c1.345,1.58,4.03,3.937,5.369,4.728c1.345,0.784-7.604,0-7.604,0
			L0,591.545v39.076c2.371-0.187,4.764-0.902,6.202-1.63c-2.962,2.234-5.894,4.443-6.202,4.678v0.062
			c0.617,0.148,6.319,1.476,8.442-0.012c2.235-1.581,0.889,4.72,0.889,4.72l8.208-7.873l4.474,1.572c0,0-2.98,2.629-4.77,6.301
			c-1.79,3.672-3.58,8.925-4.481,8.925c-0.888,0-2.085,3.672-3.282,3.672c-1.191,0-3.277,3.153-6.856,3.153
			c-1.414,0-2.042,0.407-2.623,0.741v30.782c3.696,0.153,6.53,2.598,7.393,2.598c0.895,0,5.665,0,5.665,0S7.344,691.438,0,692.5
			v64.965c0.519,0.111,1.086,0.1,1.729-0.123c4.474-1.58,6.713,3.146,4.925,6.295c-1.796,3.152,0,5.518-5.376,5.518
			c-0.462,0-0.876,0.054-1.277,0.135v73.846h791.264c-0.143-2.783,0.648-5.567,1.438-8.355c0.901-3.153,0.901-3.153,1.79-7.092
			c0.901-3.931,3.579-6.295,3.579-6.295s0.259-1.813,1.166-3.369c-0.228,0.075-0.444,0.154-0.715,0.217
			c-3.58,0.783-6.708,1.573-6.708,1.573s1.339-7.085,2.679-7.875c1.345-0.783,0.901-3.931,3.579-5.51
			c2.691-1.575,2.691-1.575,2.691-1.575l-3.135-4.72l2.684-5.518c3.135-6.295,5.376-11.812,5.376-11.812s3.129-4.722,5.369-6.295
			c2.234-1.573,4.468-8.664,4.468-8.664S803.891,776.51,798.522,785.168z M204.949,542.846c2.679-4.727,1.339,2.363,2.679-4.727
			c0.048-0.24,0.068-0.433,0.098-0.648c0.419,1.697-0.185,1.383,3.19,7.937c3.58,6.949,6.856,10.627,4.474,9.579
			c-2.381-1.05-2.986-1.581-6.262-4.722c-2.518-2.419-3.025-3.296-5.512-4.752C204.072,544.512,204.517,543.599,204.949,542.846z
			 M212.404,597.505c-0.5,0.353-1.346,0.711-2.204,1.068c0.302-0.932,0.487-1.691,0.61-2.364
			C212.811,597.178,213.643,596.635,212.404,597.505z M196.889,561.742c0.086-0.16,0.185-0.345,0.284-0.53
			c0.814,0.913,1.444,1.802,2.702,2.697c2.987,2.097,5.672,0.524,2.987,2.097c-2.216,1.304-5.442,0.457-8.01,0.119
			C194.858,564.229,195.766,563.711,196.889,561.742z M184.806,600.715c-3.352-4.722-3.352-1.179-6.709,0
			c-3.356,1.185-3.356,1.185-3.356,1.185s6.041-7.092,5.369-11.813c-0.674-4.728-2.685,1.18-0.674-4.728
			c2.019-5.899-4.695-2.363,2.019-5.899c6.709-3.549,2.685-1.186,6.709-3.549c4.03-2.356,10.392,4.086,8.726-1.178
			c-0.494-1.556-0.87-2.84-1.173-3.938c1.223,0.926,2.679,1.71,4.159,2.036c4.777,1.05,6.567,3.672,6.567,3.672
			s-2.987,1.05-3.876,4.203c-0.901,3.147,0.296,4.196-1.196,6.295c-1.495,2.104-6.265,1.579-5.667,3.678
			c0.173,0.617,0.439,0.846,0.815,0.925C190.755,596.136,187.78,604.899,184.806,600.715z M201.814,624.018
			c-1.716-1.827-4.499,0.08-6.301-1.1c0.463-0.746,1.074-1.438,2.049-2.122c2.389-1.685,4.098-0.987,5.609-2.567
			C203.27,620.876,203.905,626.22,201.814,624.018z M217.908,625.041c-0.925-1.82-1.838-2.962-2.666-2.604
			c-0.852,0.377-0.69,2.716-0.531,4.808c-0.666,0.55-1.338,1.118-2.023,1.685c-2.24-2.695-5.124-6.874-5.505-8.849
			c-0.291-1.562-1.926-3.087-3.023-3.29c0.265-0.518,0.529-1.142,0.79-1.901c2.011-5.904-1.346-2.363,3.351-11.812
			c0.543-1.086,0.956-2.024,1.295-2.856c0.636,0.074,1.45,0.209,2.512,0.432c7.461,1.58,5.072,2.099,1.79,6.3
			c-3.284,4.197-5.665,8.401-2.679,6.302c2.981-2.104,2.383-3.153,5.667-3.677c3.282-0.525,4.171,0.523,3.579,2.097
			c-0.593,1.58,2.086,2.136,2.086,2.136s0.167,5.152,0.796,8.474c-1.339,1.011-2.598,1.795-3.635,2.055
			C219.093,624.492,218.488,624.738,217.908,625.041z M227.326,632.675c-1.653-1.16-3.308,2.259-4.776,2.117
			c1.679-4.035,2.566-6.658,4.542-9.274c0.531-0.692,1.16-1.389,1.828-2.08c0.32,0.147,0.555,0.543,0.641,1.364
			C230.01,628.738,229.56,634.249,227.326,632.675z M355.887,680.479c1.146,1.906,2.159,7.276,2.159,7.276s-2.123-0.537-4.863-1.161
			c2.395-4.215,2.407-4.233,2.407-4.233S355.354,682.114,355.887,680.479z M326.728,652.837c0,0-0.674-7.085,2.684-9.448
			c3.357-2.364,4.03,1.179,8.06,0c0.099-0.031,0.173-0.062,0.26-0.099c0.358,0.493,0.715,0.901,1.073,1.153
			c2.241,1.574,5.368,6.302,5.368,6.302s2.241,5.511,5.37,11.813l2.172,4.448c-3.592,0-6.862,0-6.862,0
			c-10.072-10.626-5.37-5.906-10.072-10.626C330.083,651.652,326.728,652.837,326.728,652.837z M340.742,751.207
			c-1.396-0.173-2.283,0.1-3.95,0.834c-2.605,1.147-0.777-5.486,1.172-8.036c0.599,0.476,1.191,1.056,1.741,2.019
			C340.926,748.178,341.488,749.244,340.742,751.207z M341.421,724.788c0.481-0.081,0.962-0.222,1.444-0.451
			C342.593,725.004,342.137,725.313,341.421,724.788z M354.467,734.211c-0.889,6.302,0,0-2.234,0c-2.241,0-3.58-3.937-4.925-4.727
			c-0.778-0.457-1.999-3.548-2.901-6.072c1.396-0.976,2.457-2.08,2.457-2.08l-5.369-4.721c0,0,5.517-2.987,8.788-5.999
			c0.161,1.5,0.308,2.877,0.604,3.913c0.895,3.146,3.135,6.301,0,7.874C345.981,724.868,355.362,727.911,354.467,734.211z
			 M358.497,712.162c-0.451,3.153-4.03-1.575-4.03-1.575l-1.852-2.862c0.852-1.353,1.481-1.87,2.19-2.266
			c-0.184-0.209-0.363-0.401-0.562-0.66c-5.369-7.085-5.369-7.085-5.369-7.085l2.691-8.269c0.061-0.111,0.116-0.21,0.185-0.321
			c0.018,0.117,0.03,0.204,0.03,0.204s2.685,2.363,3.58,6.301c0.895,3.937,0.895,3.937,1.795,7.084
			c0.093,0.346,0.192,0.691,0.284,1.037c-1.16,0.987-1.95,1.327-2.635,1.709c1.599,1.858,2.734,2.067,3.438,1.55
			C358.576,708.724,358.737,710.446,358.497,712.162z M470.376,724.998c3.129,2.876,3,3.339,4.993,4.937
			c2.24,1.784-6.789-2.469-4.475,0c0.26,0.272,0.494,0.519,0.722,0.771c-2.505,0.358-5.548,1.074-7.658-0.173
			c-2.691-1.573,0,0,2.981-2.099C468.549,727.306,469.123,726.171,470.376,724.998z M450.233,700.381
			c2.986-7.585,4.776-7.64,8.949-14.466c0.259-0.414,0.493-0.808,0.728-1.186c4.641,5.932,2.468,2.846,2.931,7.696
			c0.895,9.374-1.796,11.738,0.895,13.312c1.716,1.005,2.876,0.734,4.08,1.833c-0.537,0.308-1.092,0.624-1.697,0.919
			c-5.295,2.623-5.147,3.147-8.43,6.301c-3.278,3.148-3.876,3.672-6.259,4.722c-2.388,1.049,0.889-2.629,4.469-9.579
			c3.579-6.954,2.691-6.17,3.284-8.269c0.598-2.099-2.383-0.524-5.666,2.623c-3.283,3.147-6.27,3.672-7.757,5.252
			C444.271,711.112,447.246,707.959,450.233,700.381z M470.45,787.624c-0.086,0.056-0.129,0.142-0.197,0.21
			c-1.716,0.229-3.839-0.784-5.253,0.71c-2.24,2.356-1.339-3.938-1.339-6.302c0-2.363-3.584,0-4.03,2.364
			c-0.45,2.357-4.475,7.868-6.714,10.232c-2.24,2.363,0.451-7.085-1.339-7.875c-1.79-0.79-4.03,5.511-5.82,10.517
			c-1.796,4.998-4.03-1.853-6.264-0.278c-2.24,1.573-2.691-3.937-2.24-7.875c0.45-3.937,4.03,1.573,5.375,0
			c1.333-1.573,1.642-10.991,1.642-10.991s2.678-0.555,2.085-2.129c-0.599-1.579,0.296-2.629,3.58-2.104
			c3.283,0.525,2.678,1.574,5.665,3.679c2.987,2.098,0.599-2.104-2.685-6.302c-3.276-4.202-5.671-4.72,1.79-6.301
			c3.994-0.84,4.647-0.481,4.573-0.123c0.729-1.013-3.437-2.018-4.869-3.024c-1.493-1.048,0,0,2.981-2.104
			c0.925-0.648,1.592-1.143,2.196-1.55c1.259,1.044,2.568,1.981,3.697,2.475c3.586,1.574-4.475,4.728-4.475,4.728h6.271
			l-1.346,8.658h6.264l-4.474,7.875h5.369C470.894,782.113,472.684,786.051,470.45,787.624z M482.977,751.756
			c0,0-8.054,3.499-9.398,0c-1.339-3.498,0.895-2.709-8.949-6.646c-0.179-0.075-0.333-0.137-0.5-0.204
			c-1.012-2.882-3.751-3.869-3.751-3.869s1.789-2.629,6.56-3.678c2.77-0.611,5.43-2.809,6.658-4.543
			c2.655,2.833,2.667,2.845,2.667,2.845h5.82l5.369,5.506h-13.874l9.844,5.511c0,0,5.818-1.567,7.158,0
			c1.345,1.58,4.03,3.937,5.375,4.727c1.34,0.79-7.61,0-7.61,0L482.977,751.756z M500.282,798.652
			c-1.79,3.665-3.579,8.924-4.481,8.924c-0.888,0-2.085,3.672-3.276,3.672c-0.494,0-1.154,0.543-1.993,1.172
			c0.161-0.771,0.414-1.432,0.87-1.832c1.79-1.573-1.789-8.714-1.789-8.714s1.339-3.883,3.129-2.53
			c1.795,1.351,4.925,4.943,4.925-0.006c0-4.956-1.79,0.228-1.79,0c0-0.137,0.641-2.826,2.005-5.975l2.697-2.586l4.475,1.573
			C505.053,792.351,502.072,794.98,500.282,798.652z M700.818,743.191c2.092,3.073,1.351,0.296,4.474,7.071
			c3.876,8.399,5.967,14.176,1.79,9.973c-4.171-4.202-2.981-4.196-7.455-8.398c-1.235-1.16-2.16-2.067-2.987-2.889
			c0.235-0.32,0.469-0.653,0.741-1.012C699.084,745.696,700.238,744.166,700.818,743.191z M704.996,798.553
			c-0.408-0.233-0.531-0.562-0.555-0.876c0.691-1.561,1.259-2.932,1.765-4.165C706.995,797.055,706.601,799.497,704.996,798.553z
			 M667.851,760.928c-3.356-4.728-3.356-1.18-6.714,0c-3.351,1.178-3.351,1.178-3.351,1.178s6.035-7.085,5.363-11.812
			c-0.673-4.722-2.684,1.186-0.673-4.722c2.019-5.905-4.69-2.363,2.019-5.905c6.708-3.543,2.684-1.18,6.708-3.543
			c4.03-2.362,10.393,4.086,8.726-1.185c-3.351-10.626-2.011-9.442,0-12.99c1.518-2.66,3.783-9.312,5.955-14.465
			c3.26,9.257,9.436,26.283,12.843,32.281c0.505,0.876,0.913,1.562,1.277,2.154c-0.857,0.203-2.166,0.653-3.962,1.289
			c-1.5,0.531-2.653,0.994-3.64,1.444c-0.803-0.79-1.734-1.685-2.92-2.789c-5.072-4.728-7.757-8.924-3.875-1.05
			c1.918,3.9,2.375,4.579,3.109,5.808c-1.617,0.963-3.443,2.073-6.769,3.672C674.559,753.843,671.202,765.647,667.851,760.928z
			 M670.535,799.898c0,0,3.357-4.721,5.369-9.447c2.012-4.722,1.345-7.085,4.702-9.448c3.351-2.358,5.37,0,7.381-5.907
			c2.013-5.899-1.345-2.363,3.357-11.812c1.661-3.345,2.222-5.35,2.506-6.868c6.134,12.318,9.355,17.49,9.06,19.568
			c-0.304,2.099,0.295,1.574-4.481,0c-4.771-1.579-7.159-1.432-3.876,1.383c3.284,2.814,4.777,1.241,6.862,5.968
			c0.248,0.55,0.501,1.024,0.76,1.432c-4.4,1.493-7.708,6.918-12.849,8.048c-5.369,1.179-8.726,7.084-12.077,8.264
			C673.893,802.262,670.535,799.898,670.535,799.898z M694.702,817.617c-0.074-0.02-0.111-0.02-0.179-0.038
			c-1.216-1.173-2.425-2.283-3.549-3.277c-5.283-4.646-4.493-3.183-0.493,3.363c-0.951,0.272-1.951,0.507-3.839-0.048
			c-4.024-1.186-2.013-7.091,0.672-8.271c2.685-1.185,5.369,7.085,8.054,0c0.987-2.604,0.883-3.925,0.629-4.678
			c0.26,0.067,0.563,0.137,0.938,0.185c3.882,0.525,4.185-3.146,5.975,0c1.295,2.29,1.807,3.19,2.221,4.117
			C700.713,813.47,697.917,818.561,694.702,817.617z M704.101,841.604c-1.018-1.08-2.745-1.685-4.782-2.957
			c0.074-1.69,0.358-3.474,1.123-4.257C703.12,840.531,705.453,843.029,704.101,841.604z M715.438,825.387
			c-0.599,0.469,0,5.189-2.691,5.189c-2.679,0-6.258,4.203-7.751,0c-0.247-0.696-0.667-1.487-1.191-2.333
			c0.185-1.08,0.291-2.264,0.291-3.543c0-4.726,2.011-5.905,5.369-11.811c0.075-0.13,0.148-0.259,0.223-0.396
			c0.752,0.95,1.345,1.734,1.209,2.333c-0.234,1.056-0.529,3.154-2.319,3.678c-1.79,0.524-3.876,5.252-3.876,5.252
			s1.494,3.672,5.074,0C713.352,820.079,716.03,824.923,715.438,825.387z"/>
		<path fill="#191919" d="M1280.316,797.188c0,0,1.817,5.758,3.636,7.038c1.817,1.281,4.365,5.121,4.365,5.121
			s1.817,4.479,4.365,9.596l2.179,4.48l-2.544,3.839c0,0,0,0,2.179,1.281c2.183,1.28,1.821,3.839,2.913,4.479
			c1.091,0.637,2.179,6.397,2.179,6.397s-2.544-0.641-5.449-1.281c-0.226-0.05-0.397-0.118-0.587-0.179
			c0.733,1.271,0.944,2.741,0.944,2.741s2.183,1.921,2.913,5.116c0.726,3.202,0.726,3.202,1.452,5.761
			c0.648,2.269,1.285,4.53,1.174,6.795h643.027v-60.012c-0.326-0.067-0.666-0.114-1.041-0.114c-4.362,0-2.909-1.918-4.362-4.479
			c-1.456-2.563,0.361-6.401,3.997-5.12c0.522,0.186,0.987,0.196,1.406,0.104v-52.798c-5.972-0.859-10.616-3.407-10.616-3.407
			s3.879,0,4.604,0c0.705,0,3.006-1.979,6.012-2.107v-25.014c-0.476-0.272-0.984-0.605-2.133-0.605
			c-2.909,0-4.604-2.558-5.578-2.558c-0.966,0-1.936-2.984-2.666-2.984c-0.723,0-2.179-4.269-3.635-7.253
			c-1.453-2.984-3.879-5.12-3.879-5.12l3.639-1.281l6.666,6.401c0,0-1.091-5.12,0.727-3.839c1.718,1.209,6.358,0.132,6.859,0.011
			v-0.051c-0.254-0.192-2.634-1.985-5.042-3.8c1.171,0.587,3.109,1.17,5.042,1.324v-31.759l-4.312-0.283c0,0-7.274,0.645-6.187,0
			c1.095-0.641,3.273-2.558,4.365-3.839c1.091-1.277,5.821,0,5.821,0l0.312-0.172v-4.308h-3.589l3.589-3.679v-37.423
			c-3.432,0.594-8.094,1.017-9.042,1.431c-1.456,0.637,3.639-3.839,3.639-3.839l4.727-5.757c0,0,0.24,0.16,0.677,0.311v-18.197
			c-0.297-0.115-0.637-0.15-1.041-0.033c-2.183,0.641-1.818,3.84-3.271,4.48c-1.456,0.641-0.365-5.12-1.092-7.038
			c-0.729-1.921-1.456,4.476-4.365,8.319c-2.908,3.836,0,0-2.547,1.918c-2.544,1.918-2.909,1.918-5.818,2.558
			c-2.905,0.641-2.905-2.558-4.727-6.397c-1.817-3.84,0.729-3.84,1.821-3.84c1.088,0,1.452-3.839,1.814-7.75
			c0.364-3.91,0-3.131,1.82-3.768c1.818-0.641,4.362,1.918,4.362,1.918s0,0,2.544,1.281c2.548,1.281,2.548,0,2.548,0l-2.183-6.137
			c0,0,1.456,0.376,5.821-0.901c1.896-0.558,3.245-0.147,4.312,0.286v-1.328c-0.333-0.061-0.673-0.132-1.041-0.239
			c-4.362-1.277-5.453,0-5.453,0s-1.821-1.277-0.73-3.839c1.092-2.563,1.092-5.121,5.092-8.319c0.604-0.483,1.342-1.127,2.133-1.864
			v-7.209c-1.686,0.711-1.843,1.048-3.95,2.732c-3.274,2.623-1.817-4.537-4-4.537s-2.548-2.561-5.818-0.64
			c-3.273,1.921-6.548,4.479-8.727,5.116c-2.183,0.641,3.635-3.836,5.091-7.037c1.092-2.398,2.384-1.557,3.12-2.341
			c0.24-0.257,0.426-0.698,0.516-1.499c0.365-3.199,3.271-2.559,5.092-3.199c1.817-0.641,0.727-5.12,2.183-6.397
			c1.452-1.277-1.456-7.085-1.456-7.085s1.091-3.155,2.547-2.053c1.453,1.098,3.997,4.018,3.997-0.004c0-4.025-1.453,0.182-1.453,0
			c0-0.15,0.898-3.879,2.859-7.336v-8.486c-2.358,0.852-1.625-1.359-3.224,1.925c-2.004,4.114,1.51-3.095,3.224-7.274v-2.357
			c-1.238,0.633-3.936,3.342-6.494,5.796c-4.004,3.836-5.457,1.278-8.73,1.918c-3.274,0.641-1.817-5.116-1.817-5.116
			s0,0-1.818,4.477c-1.817,4.482-1.817,1.28-2.909,5.119c-1.091,3.84-4.365,0.641-6.183,2.563c-1.817,1.918-1.091-3.199-1.091-5.124
			c0-1.918-2.909,0-3.274,1.925c-0.361,1.918-3.635,6.395-5.453,8.315c-1.817,1.918,0.365-5.761-1.091-6.397
			c-1.456-0.641-3.274,4.477-4.727,8.541c-1.457,4.068-3.274-1.503-5.092-0.226c-1.817,1.284-2.183-3.195-1.817-6.397
			c0.361-3.199,3.27,1.281,4.365,0c1.087-1.281,1.331-8.928,1.331-8.928s2.179-0.454,1.695-1.734
			c-0.482-1.281,0.243-2.133,2.913-1.711c2.665,0.43,2.179,1.281,4.604,2.991c2.426,1.703,0.487-1.71-2.183-5.12
			c-2.665-3.417-4.604-3.84,1.453-5.12c3.252-0.684,3.778-0.39,3.721-0.104c0.591-0.818-2.798-1.635-3.964-2.454
			c-1.21-0.852,0,0,2.426-1.71c2.426-1.703,2.669-2.129,6.062-2.984c3.396-0.852,4.604,0.855,5.091-0.852
			c0.487-1.707-3.392-1.281-4.608-2.988c-1.209-1.706-0.239-2.558-0.966-5.119c-0.73-2.559-3.152-3.41-3.152-3.41
			s1.453-2.133,5.335-2.988c3.879-0.852,7.514-5.546,5.335-5.546c-0.38,0-0.798,0.04-1.238,0.093
			c-2.09,0.275-4.72,0.967-6.522-0.093c-2.18-1.277,0,0,2.426-1.706c2.422-1.703,1.939-3.414,7.514-5.332
			c5.578-1.918,3.636-2.348,0.97-1.774c-2.665,0.569-6.544,3.692-5.092,0c1.457-3.696,2.67-4.412,6.548-11.665
			c3.879-7.252,3.636-5.116,4.849-8.104c1.209-2.984-1.456,0.852-5.335,3.413c-3.879,2.558-5.817,5.12-10.122,7.253
			c-4.301,2.133-4.18,2.559-6.849,5.12c-2.669,2.555-3.152,2.983-5.092,3.835c-1.939,0.855,0.73-2.132,3.639-7.781
			c2.909-5.65,2.183-5.018,2.666-6.721c0.483-1.706-1.939-0.426-4.604,2.133c-2.666,2.559-5.092,2.984-6.305,4.266
			s1.213-1.281,3.639-7.439c2.422-6.161,3.875-6.211,7.271-11.758c3.392-5.545,4.122-6.826-0.243-2.983
			c-4.361,3.835-10.184,9.812-11.393,13.222c-1.213,3.412-4.122,0-6.305,0s-1.696-3.84-2.183-4.219
			c-0.483-0.376,1.696-4.309,4.608-1.324c2.905,2.984,4.122,0,4.122,0s-1.699-3.844-3.156-4.27
			c-1.452-0.426-1.695-2.132-1.885-2.983c-0.193-0.855,1.402-2.129,2.372-3.839c0.97-1.707,1.452,1.278,1.939,0
			c0.486-1.281,0.729-1.707,2.179-4.265c1.456-2.562,1.699,0.426,4.852,0s1.21-1.71-3.396-4.952
			c-4.604-3.252-1.696-1.023-3.148-0.171c-1.456,0.855-1.7-1.704-0.727-5.117c0.97-3.414,1.453,0,4.118,0
			c2.67,0,0.243-2.559-2.183-3.414c-2.422-0.855,0,0,1.7-3.835c1.695-3.843,2.905-2.566,5.574-4.849
			c2.669-2.29,0.73-2.408-3.152-1.127c-3.879,1.281-3.392,1.707-3.639,0c-0.24-1.707,2.43-5.972,7.521-16.212
			c5.088-10.237,3.392-5.968,6.544-12.366c3.148-6.401,0.966-2.988-3.152,0.848c-4.118,3.843-4.608,4.695-8.24,8.108
			c-3.639,3.413-2.673,3.41-6.065,6.823c-3.396,3.414-1.695-1.277,1.457-8.104c3.152-6.823,1.452-1.707,5.335-8.534
			c3.878-6.823,12.18-31.248,12.18-31.248s-10.91,15.68-11.457,17.275c-0.544,1.603-0.909,1.284-1.281,3.839
			c-0.372,2.562-1.263,1.604-2.533,3.843c-1.273,2.24-1.821,1.603-3.092,3.199c-1.273,1.6-1.456-1.918-2.729-2.24
			c-1.274-0.322,0,3.518-1.088,4.802c-1.092,1.277-2.548,1.277-3.821,2.236c-1.271,0.959-0.905-1.917-0.727-3.835
			c0.183-1.921,0.909-2.24,2.548-4.48c1.632-2.24,4.179-4.161,4.361-6.079c0.183-1.921-2,1.918-3.635,2.555
			c-1.64,0.645-1.457-0.314-1.457-1.917c0-1.6,0.909-2.877,0-2.559c-0.908,0.319-0.604-4.158-0.604-4.158
			c1.456-2.132,2.666,2.984,5.088,0c2.43-2.984-2.665-0.855-2.665-3.413c0-2.559,8.73-12.799,10.187-18.345
			c1.449-5.546-6.791,11.947-8.73,13.65c-1.939,1.71,0,0-2.179-2.129c-2.184-2.136,0,0,1.695-1.71
			c1.692-1.707-0.486-2.132-1.456-4.265c-0.97-2.133,1.456-2.984,0.727-4.265c-0.727-1.281-3.636-2.559-2.666-2.902
			c0.97-0.344,2.423-1.793,3.636-3.5c1.213-1.703-2.18-0.852-2.909-2.558c-0.727-1.707,4.849-2.988,6.305-4.265
			c1.456-1.281-6.548,2.132-5.818-1.281c0.727-3.414,8.971-20.478,9.214-23.465c0.239-2.984-8.244,20.477-11.153,18.348
			c-2.912-2.136-1.939-1.71-1.456,1.703c0.483,3.414,2.426,5.972,0.727,6.398c-1.696,0.429-4.365-3.41-2.183,1.71
			c2.183,5.116,0,2.132-2.279,5.116c-2.286,2.988-4.265,1.707-4.509,0c-0.239-1.707,1.939-3.41,3.396-4.168
			c1.453-0.751-2.426-0.948-3.635-0.097c-1.217,0.855,1.456-3.839,4.019-12.373c1.596-10.237,13.436-28.582,13.436-31.566
			c0-2.988-10.184,17.705-10.184,17.705l-1.817-10.877c0,0-0.727,15.994-2.183,12.798c-1.453-3.202,0,0-1.35,5.117
			c-1.349,5.12-2.286,3.198-4.94,5.761c-1.389,1.334-1.707-3.843,0-9.6c1.706-5.761,2.289-5.761,2.289-7.679
			c0-1.921-3.635,6.401-4.361,4.48c-0.729-1.922,2.544-5.757,3.636-10.395c1.091-4.63,5.456-12.004,2.179-8.802
			c-3.271,3.199-3.271,6.398-4.727,9.597c-1.453,3.199-1.453-10.237-2.544-15.357c-1.092-5.12-0.361-7.678-1.092-24.957
			c-0.726-17.275,0-33.272,0-33.272l-3.811,54.39c0,0-3.463,3.199-4.555,3.199c-1.091,0,4.555,2.562,4.555,2.562
			s-2.372,3.199-2.318,6.398l-2.598,5.12l4.916,1.918l-2.318,1.921l2.318,2.558c0,0-2.733,0.641-2.318,1.281
			c0.411,0.637,2.318,5.117,2.318,5.117l-2.318,4.479l-2.236,0.644l-2.544-3.202l-2.183-3.839l-3.997-10.237
			c0,0,1.088,5.757,1.449,8.315c0.297,2.057-9.969-8.684-13.264-12.327c1.148,1.686,2.297,4.279,3.449,5.289
			c1.453,1.281,5.453,7.678,7.636,10.877c2.179,3.202,4,5.124,4,5.124l2.183,6.398c0,0-3.613-1.907-7.245-1.285
			c0.519,0.733,1.066,1.545,1.792,2.562c1.818,2.562,1.818,6.401,1.818,6.401h5.091c0,0,2.906,0.641,3.271,3.839
			c0.365,3.199,0,0-2.183,3.199s0,0-2.183,3.199c-2.647,3.882,5.146,5.761,5.146,5.761l-5.146,0.641l5.146,3.195
			c0,0-1.145,5.124-2.598,8.319c-1.453,3.203-2.183-0.641-4-1.277c-1.821-0.641-1.092-3.203-1.457-5.12
			c-0.364-1.921-4.361-14.076-5.091-15.998c-0.727-1.918-1.092,3.199-0.727,5.757c0.361,2.562,1.456,7.042,1.817,8.963
			c0.365,1.917,0.365,7.675,0.365,7.675l-4.365-7.038c0,0-3.271-3.839-6.18-6.397c-1.632-1.435-4.404-4.877-6.526-7.628
			c0.226,0.519,3.331,7.764,5.436,11.468c0,0,2.905,3.839,5.817,7.678l1.092,7.038l0.361,7.679l-5.818-3.835c0,0,0,0,0.727,2.555
			c0.727,2.562,2.548,4.479,4.004,5.761c1.453,1.281-0.365,4.479,0,6.401c0.361,1.918-0.729,7.038-0.729,7.038l-2.548-1.921
			l-3.997-7.038l-1.452-6.397c0,0,1.452,6.397,1.452,11.518c0,5.117-2.183-2.562-4-5.757c-1.817-3.203-1.817-5.124-4.365-7.682
			c-2.548-2.559-3.636-5.761-6.18-8.319c-2.548-2.558-6.183-7.678-6.183-7.678s1.088,3.199,2.905,7.042
			c1.821,3.835,1.095,3.195,4.365,8.315c3.274,5.12,0,0,2.183,5.761l1.456,10.237c0,0-5.095-3.199-2.183,1.281c0,0,0,0,2.909,6.397
			s5.457,17.278,5.457,17.278l-4.73-1.281l2.548,4.479l1.087,5.757l-3.635-0.637l3.273,6.397l-1.091,7.038
			c0,0-3.274-1.921-4.73-2.559c-1.452-0.64-3.632-3.199-7.997-10.24c-4.365-7.035-13.822-14.076-13.822-14.076
			s1.818,5.761,3.64,7.042c1.817,1.277,4.361,5.117,4.361,5.117s1.821,4.476,4.365,9.597l2.183,4.483l-2.544,3.835
			c0,0,0,0,2.179,1.281c2.183,1.281,1.821,3.839,2.909,4.48c1.095,0.64,2.183,6.396,2.183,6.396s-2.544-0.641-5.453-1.28
			c-0.222-0.05-0.396-0.114-0.583-0.175c0.733,1.266,0.944,2.736,0.944,2.736s2.183,1.922,2.909,5.121
			c0.727,3.198,0.727,3.198,1.456,5.756c0.727,2.563,1.453,5.121,1.092,7.68c-0.365,2.562-3.274-1.277-3.274-1.277l-9.088-14.08
			c0,0,1.452,4.479,3.635,7.038c0.716,0.845,1.16,1.957,1.453,3.174c0.604,2.476,0.602,5.349,1.091,7.066
			c0.727,2.559,2.548,5.12,0,6.397c-3.989,2.008,3.636,4.48,2.909,9.597c-0.727,5.124,0,0-1.817,0s-2.912-3.195-4-3.836
			c-1.092-0.64-3.271-7.679-3.271-7.679s0.361,6.398-2.183,3.199c-2.548-3.199-4.365-19.196-4.365-19.196s-0.365,4.479,0,7.679
			c0.365,3.202,2.909,6.397-0.73,5.116c-3.635-1.277-10.183-10.237-10.183-10.237l5.095,8.323l-6.909,0.637
			c0,0,2.544,0.641,3.636,1.277c1.091,0.641,3.273,1.921,4.361,3.202c1.092,1.277,3.274,3.199,3.274,3.199l-2.909,1.922
			c0,0-5.457-4.48-3.636-1.281c1.817,3.199,1.456,5.116,3.636,7.038c2.183,1.921,1.817,1.921,3.271,5.116
			c1.46,3.203,3.273,2.563,4.729,5.124c1.457,2.555,1.818,3.195-0.726,7.034c-2.544,3.844,0,0-3.64,0
			c-3.635,0-6.548-2.559-7.636-2.559c-1.091,0-8.365-3.839-6.183-1.28c2.183,2.562,1.821,2.562,4,5.761
			c1.163,1.707,1.808,1.953,2.158,1.814c-0.684,1.051-1.696,3.306,2.207,3.306c5.089,0,0,0,2.909,1.918
			c2.909,1.921,2.909,1.921,2.909,4.479s1.041,5.828,1.041,5.828s0,0-3.271,0.963c-3.273,0.955-2.726,0-6,0.955
			c-3.274,0.959-9.271-0.955-9.271-0.955s0,0,7.632,5.754c7.639,5.761,0,0,2.729,3.843c2.727,3.839,0,0,2.727,7.675
			c1.16,3.256-3.273,4.802,0,5.758c3.274,0.962,3.818-1.918,6.548,0c2.727,1.921,2.18,7.678,2.18,7.678s-2.727-0.959-6.545,2.885
			c-3.817,3.835,0,0-8.183,8.633c0,0-3.271,0-6.544,0c-3.274,0-4.909-2.876-9.271-0.959c-1.674,0.734,2.18,1.922,4.906,7.414
			c2.729,5.492,2.183,6.022,2.183,6.022s0,0,3.273,5.761l2.183,6.719c0,0,0,0-4.365,5.758c-0.161,0.211-0.304,0.365-0.454,0.537
			c0.658,0.371,1.224,0.818,2.09,2.344c1.639,2.88,8.73,6.719,8.73,6.719l-4.365,3.84c0,0,2.726,2.877,4.908,2.877
			c2.184,0,5.457,1.921,5.457,1.921s0,0-2.183,7.679c-2.183,7.675,0,0-4.909-1.922c0,0,2.183,5.758,3.818,7.68
			c1.635,1.917,3.273,7.678,1.091,6.715c-2.183-0.959-2.727-0.959-6.004,0c-2.165,0.641-2.905-0.837-4.741-2.461
			c0.215-0.34,0.43-0.766,0.741-1.539c0.798-1.953-0.086-0.973-1.872,0.651c-0.758-0.526-1.674-1.034-2.852-1.449
			c-5.456-1.917,0,0-2.727,0.962c-2.729,0.959-3.821,0-6,0c-2.183,0-4.365-1.921-4.365-1.921l0.547,6.72c0,0-3.86-3.764-3.964-0.587
			c-0.605-0.235-2.469,0.963-4.466,2.88c-2.666,2.559-5.092,2.984-6.305,4.266c-1.209,1.277,1.213-1.281,3.639-7.442
			c2.423-6.161,3.879-6.212,7.271-11.757c3.396-5.543,4.121-6.824-0.244-2.984c-4.361,3.839-10.179,9.814-11.393,13.221
			c-1.213,3.414-4.121,0-6.304,0s-1.696-3.836-2.183-4.215c-0.483-0.376,1.699-4.313,4.608-1.328c2.908,2.984,4.122,0,4.122,0
			s-1.7-3.839-3.152-4.265c-1.457-0.429-1.696-2.132-1.89-2.983c-0.193-0.855,1.402-2.133,2.376-3.844
			c0.966-1.707,1.452,1.281,1.939,0c0.482-1.277,0.727-1.707,2.183-4.265c1.452-2.559,1.696,0.426,4.845,0
			c3.152-0.426,1.213-1.707-3.393-4.952c-4.604-3.249-1.699-1.02-3.152-0.168c-1.456,0.855-1.699-1.703-0.726-5.117
			c0.97-3.417,1.452,0,4.122,0c2.665,0,0.243-2.562-2.183-3.417c-2.427-0.852,0,0,1.695-3.835c1.696-3.84,2.913-2.563,5.578-4.85
			c2.666-2.285,0.723-2.404-3.152-1.123c-3.878,1.281-3.396,1.707-3.635,0c-0.243-1.707,2.422-5.972,7.51-16.212
			c5.096-10.237,3.399-5.968,6.548-12.37c3.152-6.4,0.974-2.987-3.148,0.849c-4.122,3.843-4.608,4.698-8.244,8.111
			c-3.639,3.413-2.665,3.41-6.064,6.823c-3.392,3.414-1.696-1.281,1.456-8.107c3.152-6.824,1.457-1.703,5.335-8.53
			c3.879-6.823,12.18-31.251,12.18-31.251s-10.909,15.683-11.453,17.282c-0.544,1.596-0.909,1.277-1.281,3.835
			c-0.375,2.563-1.263,1.604-2.536,3.84c-1.274,2.24-1.818,1.604-3.096,3.203c-1.27,1.599-1.449-1.922-2.723-2.24
			c-1.273-0.322,0,3.518-1.095,4.798c-1.088,1.28-2.544,1.28-3.814,2.236c-1.273,0.962-0.909-1.918-0.727-3.836
			c0.179-1.921,0.905-2.239,2.544-4.479c1.636-2.24,4.18-4.161,4.365-6.079c0.18-1.918-2.003,1.918-3.639,2.558
			c-1.635,0.645-1.456-0.318-1.456-1.918c0-1.599,0.909-2.88,0-2.558c-0.909,0.318-0.604-4.161-0.604-4.161
			c1.456-2.133,2.669,2.987,5.091,0c2.427-2.984-2.665-0.852-2.665-3.414c0-2.559,8.727-12.799,10.183-18.341
			c1.457-5.546-6.787,11.944-8.73,13.65c-1.938,1.706,0,0-2.179-2.132c-2.183-2.137,0,0,1.696-1.707
			c1.695-1.707-0.487-2.133-1.456-4.27c-0.967-2.129,1.456-2.984,0.729-4.265c-0.729-1.277-3.639-2.558-2.669-2.898
			c0.973-0.343,2.426-1.792,3.639-3.499c1.209-1.707-2.183-0.855-2.913-2.563c-0.726-1.703,4.853-2.983,6.305-4.265
			c1.457-1.277-6.544,2.136-5.817-1.277s8.97-20.478,9.213-23.465c0.24-2.987-8.243,20.478-11.152,18.345
			c-2.905-2.133-1.939-1.707-1.456,1.707c0.486,3.413,2.426,5.972,0.729,6.397c-1.696,0.429-4.361-3.41-2.179,1.706
			c2.179,5.121,0,2.137-2.286,5.121c-2.283,2.987-4.262,1.703-4.505,0c-0.244-1.707,1.938-3.414,3.392-4.166
			c1.456-0.754-2.422-0.955-3.636-0.104c-1.209,0.855,1.453-3.839,4.019-12.369c1.596-10.236,13.439-28.582,13.439-31.565
			c0-2.987-10.184,17.7-10.184,17.7l-1.817-10.873c0,0-0.729,15.994-2.183,12.795c-1.456-3.199,0,0-1.349,5.12
			c-1.353,5.116-2.29,3.195-4.945,5.757c-1.385,1.338-1.71-3.839,0-9.596c1.71-5.762,2.294-5.762,2.294-7.683
			s-3.64,6.401-4.365,4.479c-0.73-1.921,2.544-5.757,3.639-10.391c1.088-4.633,5.453-12.004,2.183-8.805
			c-3.277,3.198-3.277,6.396-4.73,9.6c-1.452,3.195-1.452-10.24-2.548-15.361c-1.087-5.116-0.361-7.678-1.087-24.953
			c-0.73-17.275,0-33.272,0-33.272l-3.814,54.387c0,0-3.46,3.202-4.552,3.202c-1.095,0,4.552,2.559,4.552,2.559
			s-2.369,3.199-2.318,6.397l-2.598,5.12l4.916,1.922l-2.318,1.918l2.318,2.562c0,0-2.734,0.637-2.318,1.277
			c0.415,0.641,2.318,5.12,2.318,5.12l-2.318,4.477l-2.233,0.644l-2.544-3.198l-2.183-3.844l-4-10.232c0,0,1.091,5.757,1.456,8.314
			c0.29,2.059-9.972-8.684-13.271-12.326c1.152,1.682,2.301,4.279,3.449,5.289c1.457,1.277,5.453,7.675,7.636,10.877
			c2.187,3.199,4.001,5.12,4.001,5.12l2.183,6.397c0,0-3.618-1.903-7.239-1.284c0.512,0.737,1.063,1.546,1.786,2.562
			c1.817,2.563,1.817,6.401,1.817,6.401h5.092c0,0,2.909,0.641,3.271,3.839c0.364,3.203,0,0-2.183,3.203c-2.18,3.195,0,0-2.18,3.195
			c-2.65,3.889,5.143,5.76,5.143,5.76l-5.143,0.641l5.143,3.199c0,0-1.142,5.121-2.598,8.319c-1.453,3.198-2.18-0.641-4.001-1.281
			c-1.817-0.64-1.091-3.198-1.456-5.116c-0.361-1.922-4.361-14.08-5.088-16.002c-0.73-1.918-1.092,3.203-0.73,5.762
			c0.365,2.558,1.457,7.041,1.821,8.959c0.361,1.918,0.361,7.679,0.361,7.679l-4.361-7.038c0,0-3.274-3.84-6.183-6.401
			c-1.628-1.435-4.401-4.877-6.526-7.625c0.222,0.519,3.331,7.765,5.435,11.468c0,0,2.909,3.836,5.818,7.676l1.091,7.041
			l0.365,7.675l-5.817-3.835c0,0,0,0,0.723,2.558c0.729,2.559,2.547,4.479,4.004,5.761c1.456,1.277-0.365,4.477,0,6.397
			c0.361,1.918-0.727,7.038-0.727,7.038l-2.548-1.918l-4-7.041l-1.456-6.398c0,0,1.456,6.398,1.456,11.519
			c0,5.116-2.18-2.559-4.001-5.757c-1.817-3.203-1.817-5.121-4.365-7.683c-2.544-2.559-3.635-5.757-6.179-8.315
			c-2.548-2.559-6.187-7.679-6.187-7.679s1.095,3.195,2.912,7.038c1.818,3.836,1.092,3.199,4.362,8.315c3.273,5.12,0,0,2.183,5.761
			l1.456,10.24c0,0-5.092-3.202-2.183,1.277c0,0,0,0,2.912,6.401c2.905,6.397,5.453,17.274,5.453,17.274l-4.73-1.28l2.548,4.483
			l1.092,5.758l-3.64-0.641l3.274,6.4l-1.092,7.038c0,0-3.27-1.921-4.727-2.562c-1.456-0.641-3.635-3.195-8-10.236
			c-4.365-7.039-13.818-14.08-13.818-14.08s1.817,5.76,3.635,7.041s4.362,5.117,4.362,5.117s1.82,4.479,4.368,9.6l2.179,4.48
			l-2.547,3.839c0,0,0,0,2.183,1.28c2.183,1.277,1.821,3.84,2.912,4.477c1.092,0.641,2.18,6.397,2.18,6.397
			s-2.544-0.637-5.453-1.277c-0.222-0.05-0.394-0.118-0.58-0.179c0.733,1.27,0.941,2.74,0.941,2.74s2.183,1.918,2.912,5.117
			c0.727,3.203,0.727,3.203,1.453,5.758c0.727,2.564,1.456,5.119,1.095,7.682c-0.368,2.562-3.277-1.281-3.277-1.281l-9.089-14.076
			c0,0,1.453,4.48,3.636,7.038c0.716,0.841,1.155,1.958,1.456,3.171c0.604,2.476,0.602,5.349,1.092,7.07
			c0.723,2.555,2.544,5.116,0,6.394c-3.99,2.007,3.635,4.483,2.905,9.6c-0.727,5.12,0,0-1.818,0c-1.813,0-2.908-3.198-4-3.839
			c-1.091-0.641-3.271-7.676-3.271-7.676s0.362,6.398-2.183,3.195c-2.547-3.195-4.365-19.195-4.365-19.195s-0.361,4.482,0,7.678
			c0.361,3.203,2.909,6.398-0.726,5.121c-3.64-1.277-10.184-10.241-10.184-10.241l5.088,8.323l-6.905,0.641
			c0,0,2.544,0.64,3.635,1.277c1.092,0.641,3.271,1.918,4.365,3.201c1.088,1.277,3.274,3.195,3.274,3.195l-2.913,1.922
			c0,0-5.449-4.479-3.635-1.277c1.817,3.195,1.456,5.113,3.635,7.034c2.183,1.922,1.821,1.922,3.274,5.124
			c1.452,3.195,3.273,2.555,4.73,5.117c1.452,2.558,1.813,3.198-0.73,7.038c-2.548,3.839,0,0-3.635,0
			c-3.64,0-6.545-2.559-7.64-2.559c-1.088,0-8.362-3.84-6.183-1.281c2.186,2.559,1.821,2.559,4,5.761
			c1.167,1.703,1.807,1.95,2.157,1.814c-0.683,1.052-1.692,3.303,2.208,3.303c5.092,0,0,0,2.909,1.921
			c2.912,1.918,2.912,1.918,2.912,4.477c0,2.562,1.041,5.828,1.041,5.828s0,0-3.273,0.963c-3.273,0.959-2.727,0-5.997,0.959
			c-3.273,0.959-9.274-0.959-9.274-0.959s0,0,7.636,5.754c7.636,5.761,0,0,2.727,3.843c2.727,3.839,0,0,2.727,7.679
			c0.193,0.536,0.222,1.022,0.168,1.474c-3.095,2.562-8.455,7.371-11.436,12.184c-3.6,5.807-5.714,8.559-7.159,9.703
			c-0.956-0.093-2.04,0.04-3.393,0.634c-0.611,0.271-0.476,0.602,0.068,1.181c-1.181,0.655-2.244,1.277-2.244,1.277l-1.095-7.034
			l3.278-6.401l-3.64,0.641l1.092-5.761l2.548-4.479l-4.73,1.28c0,0,2.547-10.881,5.456-17.274c2.905-6.401,2.905-6.401,2.905-6.401
			c2.913-4.477-2.179-1.281-2.179-1.281l1.453-10.236c2.183-5.758-1.092-0.641,2.183-5.758c3.273-5.123,2.544-4.479,4.365-8.318
			c1.817-3.84,2.908-7.042,2.908-7.042s-3.639,5.124-6.183,7.683c-2.548,2.555-3.635,5.76-6.179,8.315
			c-2.548,2.558-2.548,4.479-4.365,7.682c-1.818,3.195-4.001,10.877-4.001,5.757s1.453-11.518,1.453-11.518l-1.453,6.397l-4,7.038
			l-2.548,1.922c0,0-1.091-5.117-0.727-7.038c0.361-1.922-1.452-5.12,0-6.397c1.453-1.285,3.274-3.203,3.997-5.761
			c0.733-2.559,0.733-2.559,0.733-2.559l-5.821,3.839l0.361-7.678l1.091-7.042c2.913-3.836,5.822-7.676,5.822-7.676
			c2.1-3.703,5.209-10.948,5.432-11.471c-2.122,2.752-4.892,6.193-6.523,7.632c-2.909,2.556-6.183,6.397-6.183,6.397l-4.365,7.038
			c0,0,0-5.757,0.365-7.678c0.361-1.919,1.456-6.401,1.817-8.96c0.365-2.559,0-7.679-0.727-5.761
			c-0.729,1.921-4.727,14.08-5.092,15.998c-0.364,1.917,0.365,4.479-1.456,5.123c-1.817,0.638-2.544,4.477-3.997,1.277
			c-1.456-3.198-2.601-8.318-2.601-8.318l5.146-3.199l-5.146-0.64c0,0,7.796-1.875,5.146-5.758c-2.184-3.202,0,0-2.184-3.202
			c-2.182-3.199-2.544,0-2.182-3.199c0.364-3.198,3.273-3.839,3.273-3.839h5.092c0,0,0-3.84,1.817-6.401
			c0.723-1.017,1.271-1.829,1.785-2.562c-3.624-0.623-7.241,1.284-7.241,1.284l2.183-6.397c0,0,1.821-1.922,4-5.124
			c2.183-3.195,6.183-9.593,7.639-10.874c1.149-1.012,2.298-3.606,3.446-5.288c-3.296,3.643-13.558,14.38-13.264,12.326
			c0.361-2.562,1.452-8.319,1.452-8.319l-4,10.237l-2.183,3.839l-2.544,3.203l-2.236-0.641l-2.315-4.483
			c0,0,1.907-4.476,2.315-5.116c0.418-0.641-2.315-1.281-2.315-1.281l2.315-2.559l-2.315-1.918l4.916-1.922l-2.601-5.119
			c0.057-3.199-2.315-6.398-2.315-6.398s5.643-2.559,4.552-2.559c-1.092,0-4.552-3.198-4.552-3.198l-3.814-54.394
			c0,0,0.727,16.001,0,33.275c-0.726,17.275,0,19.838-1.091,24.954c-1.088,5.12-1.088,18.556-2.544,15.36
			c-1.456-3.202-1.456-6.397-4.727-9.6c-3.274-3.199,1.091,4.172,2.179,8.802c1.092,4.638,4.365,8.477,3.639,10.395
			c-0.729,1.921-4.361-6.401-4.361-4.479c0,1.921,0.579,1.921,2.286,7.678c1.711,5.762,1.389,10.936,0,9.601
			c-2.651-2.559-3.592-0.641-4.938-5.761c-1.353-5.117,0.104-8.318-1.353-5.117c-1.456,3.195-2.183-12.799-2.183-12.799
			l-1.817,10.878c0,0-10.184-20.692-10.184-17.704c0,2.987,11.84,21.328,13.436,31.565c2.565,8.538,5.235,13.229,4.019,12.373
			c-1.21-0.852-5.088-0.655-3.636,0.101c1.456,0.755,3.636,2.461,3.396,4.168c-0.243,1.703-2.222,2.984-4.504,0
			c-2.283-2.987-4.466,0-2.283-5.12s-0.486-1.28-2.183-1.706c-1.7-0.426,0.243-2.988,0.727-6.402
			c0.486-3.413,1.456-3.839-1.457-1.703c-2.905,2.133-11.393-21.332-11.149-18.344c0.24,2.983,8.484,20.047,9.214,23.461
			c0.727,3.414-7.274,0-5.821,1.285c1.456,1.277,7.031,2.555,6.305,4.261c-0.727,1.707-4.122,0.855-2.909,2.562
			c1.213,1.707,2.666,3.156,3.636,3.496c0.973,0.344-1.939,1.621-2.666,2.905c-0.727,1.278,1.696,2.13,0.727,4.262
			c-0.97,2.136-3.152,2.562-1.453,4.265c1.696,1.711,3.879-0.426,1.696,1.711c-2.183,2.133-0.243,3.839-2.183,2.133
			c-1.936-1.707-10.18-19.2-8.727-13.654c1.452,5.546,10.183,15.786,10.183,18.345s-5.092,0.43-2.669,3.413
			c2.426,2.984,3.639-2.132,5.092,0c0,0,0.304,4.48-0.605,4.162c-0.908-0.319,0,0.955,0,2.555c0,1.603,0.183,2.562-1.452,1.917
			c-1.639-0.637-3.821-4.472-3.639-2.555c0.183,1.918,2.729,3.84,4.365,6.08c1.635,2.239,2.361,2.558,2.544,4.479
			c0.182,1.921,0.547,4.798-0.723,3.836c-1.277-0.959-2.73-0.959-3.822-2.236c-1.091-1.285,0.183-5.121-1.091-4.799
			c-1.273,0.318-1.456,3.836-2.73,2.24c-1.27-1.6-1.817-0.963-3.091-3.202c-1.271-2.236-2.161-1.277-2.533-3.844
			c-0.372-2.555-0.737-2.235-1.281-3.835c-0.548-1.6-11.457-17.275-11.457-17.275s8.305,24.421,12.18,31.247
			c3.883,6.824,2.183,1.707,5.339,8.53c3.148,6.827,4.848,11.519,1.452,8.108c-3.392-3.414-2.426-3.414-6.061-6.827
			c-3.636-3.413-4.122-4.265-8.241-8.107c-4.125-3.836-6.304-7.25-3.155-0.849c3.155,6.397,1.456,2.129,6.548,12.369
			c5.092,10.241,7.757,14.502,7.518,16.213c-0.247,1.703,0.239,1.277-3.639,0c-3.879-1.285-5.818-1.163-3.149,1.123
			c2.666,2.287,3.875,1.01,5.571,4.849c1.7,3.839,4.122,2.984,1.7,3.839c-2.427,0.852-4.853,3.414-2.184,3.414
			c2.666,0,3.152-3.414,4.122,0c0.97,3.413,0.727,5.968-0.726,5.116c-1.457-0.852,1.452-3.084-3.152,0.168
			c-4.609,3.246-6.549,4.526-3.396,4.952s3.396-2.562,4.853,0c1.452,2.563,1.696,2.988,2.179,4.266c0.486,1.28,0.97-1.703,1.943,0
			c0.966,1.71,2.562,2.987,2.368,3.839c-0.189,0.855-0.433,2.563-1.886,2.988c-1.456,0.426-3.152,4.265-3.152,4.265
			s1.213,2.984,4.119,0c2.912-2.984,5.091,0.948,4.608,1.327c-0.487,0.38,0,4.216-2.183,4.216s-5.092,3.417-6.301,0
			c-1.182-3.311-6.695-9.031-11.01-12.878c2.723-4.133,1.854-6.204,1.854-6.204s0,0-4.728,3.835c0,0.004-0.003,0.008-0.003,0.008
			c-0.526-0.322-0.648-0.204-0.43,0.343c-4.211,3.354-3.37,1.636-8.298,3.489c-5.088,1.921-3.632,2.562-4.727,3.839
			c-1.088,1.285-11.271,1.922-12.727,2.563c-1.453,0.64,3.639-3.84,3.639-3.84l4.727-5.757c0,0,1.817,1.273,5.092,0
			c2.007-0.787,2.179-2.562,5.453-7.6h-2.909c0,0,1.452-1.36,2.547-5.203c1.088-3.835,1.818-5.116,4.001-8.315
			c2.183-3.198,0-5.12,0-5.12s0,0-1.825,2.559c-1.817,2.562-5.449,4.479-5.449,4.479s0.361-4.479-1.817-1.918
			c-2.183,2.559,0,0-1.456,3.199c-1.453,3.198-1.818-0.641-4.001,0c-2.179,0.637-1.817,3.839-3.271,4.479
			c-1.456,0.637-0.364-5.12-1.091-7.038c-0.727-1.921-1.456,4.477-4.365,8.319c-2.909,3.836,0,0-2.544,1.918
			c-2.548,1.918-2.913,1.918-5.822,2.558c-2.905,0.641-2.905-2.558-4.727-6.397c-1.817-3.839,0.727-3.839,1.821-3.839
			c1.088,0,1.453-3.84,1.818-7.75c0.361-3.911,0-3.131,1.817-3.768c1.814-0.641,4.361,1.917,4.361,1.917s0,0,2.548,1.281
			c2.544,1.281,2.544,0,2.544,0l-2.179-6.137c0,0,1.452,0.376,5.817-0.901c4.362-1.281,5.818,2.559,7.636,0
			c1.817-2.562,0,0-4.365-1.281c-4.361-1.28-5.453,0-5.453,0s-1.821-1.28-0.729-3.839c1.095-2.562,1.095-5.12,5.092-8.319
			c4-3.202,13.822-13.438,6.912-10.877c-6.912,2.559-5.456,1.921-8.727,4.541c-3.277,2.622-1.821-4.541-4.004-4.541
			c-2.179,0-2.544-2.562-5.818-0.641c-3.273,1.918-6.547,4.479-8.727,5.117c-2.183,0.64,3.636-3.836,5.092-7.038
			c1.091-2.397,2.387-1.557,3.116-2.337c0.247-0.262,0.426-0.701,0.519-1.499c0.362-3.202,3.274-2.563,5.092-3.202
			c1.818-0.641,0.727-5.121,2.183-6.398c1.453-1.28-1.456-7.084-1.456-7.084s1.092-3.152,2.548-2.054s4,4.018,4-0.008
			s-1.456,0.187-1.456,0c0-0.186,1.456-6.215,4.727-10.051c3.273-3.839,8.365-10.877,9.457-14.076c1.091-3.199,0,0-7.274,5.758
			c-7.271,5.757-5.092,0-7.271,4.479c-2.183,4.479,2.179-4.479,3.635-8.319c1.453-3.839-2.912,0.641-6.909,4.48
			c-4,3.839-5.456,1.277-8.73,1.921c-3.271,0.641-1.817-5.12-1.817-5.12s0,0-1.817,4.477c-1.818,4.482-1.818,1.284-2.909,5.119
			c-1.092,3.844-4.365,0.638-6.183,2.563c-1.818,1.918-1.092-3.199-1.092-5.12c0-1.918-2.905,0-3.273,1.921
			c-0.362,1.918-3.636,6.398-5.453,8.315c-1.821,1.922,0.361-5.757-1.092-6.397c-1.452-0.644-3.273,4.48-4.727,8.545
			c-1.452,4.061-3.273-1.503-5.092-0.226c-1.821,1.277-2.183-3.202-1.821-6.401c0.365-3.199,3.277,1.281,4.365,0
			c1.096-1.277,1.335-8.931,1.335-8.931s2.183-0.454,1.699-1.731c-0.486-1.281,0.24-2.133,2.909-1.711
			c2.662,0.43,2.18,1.285,4.605,2.988c2.422,1.71,0.482-1.703-2.183-5.117c-2.666-3.413-4.605-3.839,1.456-5.12
			c3.245-0.683,3.771-0.39,3.718-0.101c0.59-0.818-2.798-1.643-3.961-2.461c-1.213-0.852,0,0,2.426-1.703
			c2.423-1.707,2.666-2.133,6.058-2.988c3.396-0.852,4.608,0.855,5.092-0.852c0.486-1.71-3.393-1.281-4.605-2.987
			c-1.213-1.703-0.239-2.559-0.973-5.12c-0.723-2.559-3.148-3.41-3.148-3.41s1.456-2.133,5.334-2.988
			c3.879-0.852,7.515-5.545,5.335-5.545c-0.383,0-0.798,0.039-1.234,0.096c-2.093,0.272-4.723,0.967-6.526-0.096
			c-2.183-1.277,0,0,2.426-1.707c2.423-1.703,1.937-3.414,7.515-5.332c5.574-1.918,3.635-2.347,0.97-1.774
			c-2.666,0.569-6.548,3.692-5.092,0c1.456-3.696,2.666-4.411,6.548-11.665c3.879-7.248,3.635-5.116,4.849-8.104
			c1.213-2.984-1.457,0.855-5.332,3.413c-3.882,2.559-5.821,5.12-10.126,7.253c-4.301,2.133-4.183,2.559-6.849,5.12
			c-2.665,2.559-3.152,2.984-5.091,3.836c-1.937,0.854,0.729-2.133,3.635-7.782c2.913-5.653,2.183-5.014,2.669-6.72
			c0.487-1.707-1.938-0.426-4.604,2.132c-2.669,2.559-5.092,2.984-6.305,4.266s1.213-1.281,3.636-7.439
			c2.422-6.16,3.882-6.211,7.273-11.757c3.396-5.542,4.119-6.827-0.243-2.987c-4.361,3.842-10.18,9.814-11.393,13.225
			c-1.213,3.413-4.125,0-6.304,0c-2.184,0-1.696-3.84-2.184-4.219c-0.486-0.376,1.696-4.313,4.609-1.324
			c2.905,2.984,4.118,0,4.118,0s-1.696-3.84-3.149-4.266c-1.456-0.429-1.699-2.136-1.889-2.987
			c-0.193-0.854,1.402-2.132,2.372-3.843c0.97-1.703,1.453,1.285,1.939,0c0.486-1.277,0.727-1.703,2.183-4.266
			c1.453-2.555,1.696,0.43,4.849,0c3.152-0.426,1.213-1.703-3.396-4.951c-4.605-3.249-1.696-1.02-3.149-0.165
			c-1.456,0.853-1.699-1.706-0.726-5.12c0.966-3.414,1.452,0,4.118,0c2.669,0,0.243-2.559-2.18-3.414c-2.426-0.852,0,0,1.696-3.838
			c1.696-3.836,2.909-2.563,5.575-4.846c2.665-2.286,0.726-2.404-3.152-1.127c-3.879,1.281-3.393,1.707-3.636,0
			s2.426-5.969,7.514-16.212c5.092-10.237,3.396-5.968,6.545-12.37c3.155-6.396,0.973-2.987-3.148,0.852
			c-4.122,3.844-4.605,4.699-8.244,8.108c-3.636,3.413-2.666,3.41-6.062,6.823c-3.392,3.414-1.696-1.281,1.456-8.104
			c3.152-6.828,1.456-1.703,5.335-8.531c3.875-6.822,12.18-31.25,12.18-31.25s-10.909,15.679-11.457,17.278
			c-0.544,1.599-0.905,1.28-1.28,3.839c-0.376,2.563-1.26,1.6-2.537,3.84c-1.271,2.239-1.818,1.6-3.092,3.198
			c-1.27,1.6-1.452-1.917-2.723-2.236c-1.273-0.321,0,3.518-1.095,4.795c-1.088,1.284-2.544,1.284-3.818,2.239
			c-1.27,0.963-0.908-1.918-0.726-3.839c0.182-1.918,0.908-2.239,2.544-4.476c1.639-2.244,4.186-4.162,4.365-6.08
			c0.183-1.921-2.001,1.918-3.64,2.559c-1.635,0.641-1.452-0.322-1.452-1.922c0-1.599,0.909-2.876,0-2.558s-0.608-4.157-0.608-4.157
			c1.456-2.133,2.669,2.983,5.095,0c2.427-2.988-2.669-0.855-2.669-3.418c0-2.555,8.73-12.795,10.184-18.341
			c1.456-5.546-6.788,11.943-8.728,13.653c-1.938,1.707,0,0-2.183-2.136c-2.183-2.132,0,0,1.7-1.703
			c1.695-1.71-0.487-2.136-1.456-4.269c-0.971-2.133,1.456-2.984,0.726-4.266c-0.726-1.28-3.635-2.562-2.669-2.901
			c0.973-0.34,2.426-1.789,3.639-3.499c1.213-1.703-2.183-0.852-2.905-2.559c-0.733-1.707,4.845-2.984,6.301-4.266
			c1.453-1.28-6.548,2.133-5.817-1.28c0.727-3.41,8.97-20.474,9.21-23.461c0.243-2.988-8.244,20.477-11.153,18.341
			c-2.905-2.133-1.939-1.703-1.452,1.71c0.486,3.41,2.426,5.972,0.726,6.397c-1.695,0.426-4.361-3.413-2.179,1.707
			c2.179,5.12,0,2.133-2.283,5.12c-2.282,2.984-4.261,1.703-4.508,0c-0.24-1.71,1.939-3.413,3.396-4.169
			c1.456-0.751-2.426-0.951-3.636-0.1c-1.213,0.855,1.453-3.84,4.019-12.369c1.596-10.24,13.436-28.585,13.436-31.569
			c0-2.984-10.18,17.7-10.18,17.7l-1.821-10.874c0,0-0.726,15.998-2.183,12.795c-1.456-3.195,0,0-1.349,5.12
			s-2.29,3.198-4.941,5.761c-1.385,1.334-1.71-3.84,0-9.6c1.71-5.761,2.29-5.761,2.29-7.683c0-1.918-3.636,6.401-4.361,4.479
			c-0.727-1.917,2.544-5.757,3.635-10.391c1.088-4.63,5.453-12.004,2.183-8.802c-3.273,3.199-3.273,6.397-4.73,9.596
			c-1.452,3.199-1.452-10.237-2.547-15.357c-1.088-5.117-0.361-7.679-1.088-24.957c-0.727-17.275,0-33.272,0-33.272l-3.811,54.39
			c0,0-3.464,3.203-4.552,3.203c-1.095,0,4.552,2.558,4.552,2.558s-2.372,3.199-2.322,6.394l-2.595,5.124l4.917,1.917l-2.322,1.921
			l2.322,2.559c0,0-2.733,0.637-2.322,1.281c0.415,0.641,2.322,5.117,2.322,5.117l-2.322,4.479l-2.229,0.641l-2.548-3.198
			l-2.183-3.84l-4-10.237c0,0,1.092,5.757,1.456,8.315c0.29,2.058-9.972-8.68-13.268-12.323c1.149,1.678,2.298,4.276,3.446,5.285
			c1.456,1.281,5.46,7.679,7.639,10.877c2.183,3.202,4.001,5.12,4.001,5.12l2.183,6.401c0,0-3.614-1.907-7.242-1.285
			c0.515,0.734,1.066,1.547,1.785,2.563c1.821,2.563,1.821,6.397,1.821,6.397h5.088c0,0,2.909,0.644,3.274,3.843s0,0-2.18,3.199
			c-2.186,3.199,0,0-2.186,3.199c-2.648,3.885,5.142,5.76,5.142,5.76l-5.142,0.637l5.142,3.199c0,0-1.142,5.12-2.595,8.318
			c-1.456,3.203-2.183-0.637-4-1.277c-1.821-0.644-1.091-3.198-1.456-5.119c-0.365-1.922-4.362-14.08-5.092-15.998
			c-0.723-1.918-1.091,3.199-0.723,5.761c0.361,2.555,1.452,7.038,1.814,8.956c0.364,1.922,0.364,7.678,0.364,7.678l-4.361-7.037
			c0,0-3.277-3.836-6.183-6.398c-1.632-1.434-4.405-4.877-6.526-7.628c0.222,0.519,3.331,7.769,5.432,11.468
			c0,0,2.908,3.84,5.821,7.675l1.091,7.042l0.365,7.678l-5.821-3.838c0,0,0,0,0.729,2.558c0.723,2.562,2.544,4.479,3.997,5.761
			c1.456,1.281-0.361,4.479,0,6.397c0.361,1.921-0.727,7.038-0.727,7.038l-2.548-1.918l-3.996-7.038l-1.457-6.401
			c0,0,1.457,6.401,1.457,11.521c0,5.117-2.183-2.562-4.001-5.76c-1.821-3.199-1.821-5.121-4.365-7.68
			c-2.544-2.558-3.635-5.757-6.183-8.318c-2.544-2.559-6.183-7.679-6.183-7.679s1.095,3.198,2.909,7.038
			c1.82,3.84,1.091,3.202,4.368,8.318c3.271,5.121,0,0,2.179,5.762l1.453,10.236c0,0-5.088-3.199-2.179,1.281c0,0,0,0,2.909,6.4
			c2.908,6.395,5.452,17.275,5.452,17.275l-4.727-1.281l2.544,4.48l1.092,5.761l-3.636-0.644l3.274,6.4l-1.092,7.038
			c0,0-3.273-1.918-4.727-2.558c-1.456-0.641-3.639-3.195-8.004-10.237c-4.361-7.042-13.814-14.08-13.814-14.08
			s1.813,5.761,3.635,7.038c1.817,1.281,4.361,5.121,4.361,5.121s1.818,4.479,4.365,9.6l2.184,4.477l-2.548,3.838
			c0,0,0,0,2.183,1.281s1.817,3.844,2.908,4.48c1.092,0.641,2.187,6.397,2.187,6.397s-2.548-0.641-5.46-1.281
			c-0.219-0.05-0.39-0.114-0.58-0.175c0.734,1.27,0.945,2.736,0.945,2.736s2.183,1.922,2.908,5.121
			c0.73,3.198,0.73,3.198,1.453,5.757c0.733,2.562,1.456,5.12,1.095,7.683c-0.361,2.558-3.273-1.281-3.273-1.281l-9.092-14.08
			c0,0,1.456,4.48,3.639,7.038c0.716,0.841,1.159,1.961,1.456,3.174c0.604,2.476,0.598,5.349,1.088,7.067
			c0.727,2.558,2.544,5.115,0,6.396c-3.986,2.008,3.635,4.48,2.909,9.601c-0.727,5.12,0,0-1.817,0c-1.818,0-2.909-3.202-4.001-3.839
			c-1.091-0.641-3.273-7.68-3.273-7.68s0.361,6.398-2.183,3.199s-4.362-19.199-4.362-19.199s-0.364,4.482,0,7.682
			c0.365,3.199,2.909,6.397-0.726,5.117c-3.64-1.277-10.184-10.237-10.184-10.237l5.092,8.319l-6.913,0.641
			c0,0,2.548,0.64,3.639,1.277c1.088,0.64,3.274,1.921,4.365,3.201c1.088,1.281,3.271,3.199,3.271,3.199l-2.909,1.922
			c0,0-5.453-4.484-3.639-1.281c1.817,3.199,1.456,5.117,3.639,7.038c2.183,1.918,1.817,1.918,3.274,5.12
			c1.456,3.199,3.271,2.559,4.727,5.117c1.456,2.562,1.817,3.202-0.727,7.041c-2.544,3.84,0,0-3.635,0
			c-3.64,0-6.549-2.562-7.64-2.562s-8.362-3.839-6.183-1.277c2.183,2.555,1.817,2.555,4,5.757c1.166,1.707,1.807,1.95,2.157,1.818
			c-0.683,1.051-1.692,3.299,2.204,3.299c5.096,0,0,0,2.913,1.924c2.909,1.918,2.909,1.918,2.909,4.477s1.041,5.829,1.041,5.829
			s0,0-3.271,0.959s-2.727,0-6.001,0.959c-3.273,0.959-9.273-0.959-9.273-0.959s0,0,7.639,5.757c7.636,5.761,0,0,2.723,3.843
			c2.73,3.836,0,0,2.73,7.679c1.155,3.256-3.271,4.798,0,5.757c3.273,0.959,3.817-1.921,6.544,0c2.73,1.922,2.183,7.679,2.183,7.679
			s-2.727-0.962-6.544,2.877s0,0-8.183,8.638c0,0-3.271,0-6.545,0c-3.273,0-4.909-2.877-9.274-0.959
			c-1.675,0.737,2.183,1.918,4.909,7.414c2.73,5.492,2.183,6.025,2.183,6.025s0,0,3.274,5.757l2.183,6.72c0,0,0,0-4.365,5.757
			c-0.161,0.211-0.305,0.365-0.455,0.54c0.658,0.365,1.224,0.816,2.094,2.341c1.635,2.88,8.727,6.716,8.727,6.716l-4.365,3.839
			c0,0,2.73,2.881,4.905,2.881c2.187,0,5.461,1.921,5.461,1.921s0,0-2.184,7.676c-2.182,7.678,0,0-4.912-1.918
			c0,0,2.183,5.757,3.821,7.678c1.639,1.918,3.274,7.679,1.091,6.717c-2.182-0.959-2.729-0.959-6,0
			c-3.273,0.962-3.273-2.877-8.727-4.799c-5.457-1.918,0,0-2.73,0.963c-2.727,0.959-3.817,0-5.997,0
			c-2.183,0-4.365-1.922-4.365-1.922l0.548,6.72c0,0-4.913-4.798-3.821,0.959c1.091,5.761,0,0,2.183,3.84
			c0.332,0.59,0.684,1.299,1.037,2.075c-3.245,4.716-8.662,12.67-9.041,13.786c-0.548,1.6-0.909,1.277-1.281,3.836
			c-0.372,2.562-1.264,1.603-2.537,3.843c-1.271,2.239-1.817,1.6-3.092,3.198c-1.27,1.6-1.456-1.921-2.727-2.239
			c-1.273-0.318,0,3.517-1.091,4.798s-2.544,1.281-3.821,2.24c-1.271,0.959-0.909-1.918-0.727-3.84
			c0.187-1.918,0.912-2.239,2.544-4.479c1.639-2.24,4.183-4.161,4.365-6.079c0.187-1.918-1.996,1.918-3.635,2.559
			c-1.636,0.644-1.453-0.318-1.453-1.918s0.909-2.877,0-2.559s-0.604-4.161-0.604-4.161c1.452-2.129,2.666,2.987,5.088,0
			c2.422-2.984-2.666-0.852-2.666-3.413c0-2.559,8.728-12.799,10.184-18.342c1.453-5.546-6.788,11.943-8.73,13.654
			c-1.939,1.703,0,0-2.18-2.137c-2.182-2.132,0,0,1.696-1.706c1.696-1.707-0.486-2.133-1.456-4.269
			c-0.97-2.129,1.456-2.984,0.73-4.262c-0.73-1.281-3.64-2.563-2.666-2.902c0.966-0.34,2.422-1.792,3.632-3.499
			c1.213-1.703-2.18-0.855-2.909-2.562c-0.723-1.703,4.849-2.98,6.305-4.262s-6.545,2.133-5.818-1.281
			c0.727-3.413,8.971-20.478,9.214-23.461c0.239-2.988-8.244,20.474-11.156,18.341c-2.905-2.133-1.937-1.707-1.449,1.707
			c0.483,3.413,2.422,5.976,0.727,6.401c-1.7,0.426-4.365-3.414-2.183,1.703c2.183,5.12,0,2.136-2.283,5.12
			c-2.286,2.987-4.266,1.703-4.505,0c-0.243-1.707,1.939-3.41,3.392-4.165c1.457-0.755-2.426-0.955-3.635-0.104
			c-1.213,0.858,1.456-3.836,4.021-12.37c1.596-10.236,13.436-28.581,13.436-31.565c0-2.987-10.187,17.701-10.187,17.701
			l-1.817-10.874c0,0-0.727,15.994-2.183,12.795c-1.449-3.199,0,0-1.349,5.12c-1.35,5.117-2.287,3.199-4.941,5.757
			c-1.389,1.339-1.711-3.835,0-9.596c1.71-5.761,2.293-5.761,2.293-7.683c0-1.921-3.635,6.401-4.369,4.48
			c-0.723-1.918,2.548-5.758,3.64-10.392c1.091-4.63,5.452-12.004,2.183-8.806c-3.274,3.203-3.274,6.398-4.727,9.601
			c-1.453,3.195-1.453-10.237-2.545-15.361c-1.095-5.116-0.364-7.678-1.095-24.953c-0.726-17.275,0-33.272,0-33.272l-3.811,54.391
			c0,0-3.46,3.198-4.551,3.198c-1.092,0,4.551,2.563,4.551,2.563s-2.372,3.198-2.318,6.394l-2.598,5.124l4.916,1.918l-2.318,1.918
			l2.318,2.562c0,0-2.733,0.637-2.318,1.277c0.411,0.645,2.318,5.12,2.318,5.12l-2.318,4.48l-2.232,0.64l-2.548-3.198l-2.183-3.84
			l-4-10.236c0,0,1.095,5.757,1.456,8.315c0.293,2.058-9.969-8.681-13.268-12.323c1.152,1.679,2.301,4.276,3.449,5.285
			c1.453,1.281,5.453,7.679,7.636,10.877c2.183,3.199,4,5.12,4,5.12l2.183,6.397c0,0-3.613-1.903-7.242-1.284
			c0.516,0.737,1.066,1.546,1.786,2.563c1.821,2.562,1.821,6.4,1.821,6.4h5.091c0,0,2.909,0.641,3.271,3.84
			c0.365,3.202,0,0-2.179,3.202c-2.183,3.199,0,0-2.183,3.199c-2.651,3.886,5.142,5.757,5.142,5.757l-5.142,0.641l5.142,3.198
			c0,0-1.142,5.12-2.598,8.319c-1.453,3.199-2.183-0.641-4-1.277c-1.818-0.645-1.092-3.202-1.456-5.12
			c-0.362-1.922-4.362-14.08-5.092-16.001c-0.727-1.918-1.088,3.202-0.727,5.761c0.365,2.558,1.456,7.041,1.821,8.959
			c0.361,1.922,0.361,7.679,0.361,7.679l-4.362-7.038c0,0-3.273-3.839-6.183-6.397c-1.628-1.438-4.4-4.881-6.522-7.629
			c0.222,0.52,3.327,7.769,5.432,11.468c0,0,2.908,3.84,5.817,7.675l1.092,7.042l0.364,7.679l-5.817-3.839c0,0,0,0,0.727,2.558
			c0.726,2.563,2.544,4.479,4,5.761s-0.365,4.479,0,6.397c0.361,1.922-0.729,7.038-0.729,7.038l-2.545-1.918l-4-7.038l-1.456-6.4
			c0,0,1.456,6.4,1.456,11.518c0,5.12-2.183-2.559-4-5.757c-1.817-3.199-1.817-5.121-4.361-7.679
			c-2.548-2.559-3.64-5.761-6.184-8.319c-2.547-2.559-6.183-7.679-6.183-7.679s1.091,3.199,2.909,7.038
			c1.817,3.84,1.091,3.199,4.361,8.319c3.274,5.12,0,0,2.183,5.761l1.456,10.236c0,0-5.092-3.198-2.183,1.281c0,0,0,0,2.913,6.397
			c2.905,6.397,5.453,17.275,5.453,17.275l-4.727-1.277l2.544,4.479l1.091,5.757l-3.635-0.64l3.27,6.4l-1.091,7.038
			c0,0-3.274-1.921-4.727-2.562c-1.456-0.641-3.636-3.195-7.997-10.237C1289.77,804.226,1280.316,797.188,1280.316,797.188z
			 M1777.591,616.506c-2.019,1.184-2.434,1.893-4.477,3.857c-2.669,2.559-3.152,2.984-5.092,3.836
			c-1.938,0.854,0.727-2.129,3.636-7.783c2.741-5.324,2.254-5.066,2.594-6.443c0.021,0.172,0.036,0.328,0.075,0.525
			c1.092,5.761,0,0,2.183,3.84C1776.857,614.949,1777.222,615.693,1777.591,616.506z M1771.744,657.707
			c0.104,0.54,0.25,1.163,0.494,1.918c-0.691-0.29-1.382-0.579-1.793-0.869C1769.443,658.047,1770.112,658.494,1771.744,657.707z
			 M1784.715,633.258c-2.09,0.272-4.713,0.959-6.513-0.096c-2.183-1.277,0,0,2.426-1.711c1.031-0.723,1.535-1.445,2.201-2.186
			c0.078,0.146,0.153,0.3,0.229,0.429C1783.967,631.297,1784.707,631.713,1784.715,633.258z M1783.362,653.965
			c0.304-0.064,0.519-0.254,0.662-0.755c0.482-1.707-3.396-1.281-4.605-2.984c-1.217-1.707-0.247-2.562-0.974-5.12
			c-0.726-2.559-3.148-3.414-3.148-3.414s1.453-2.132,5.331-2.983c1.21-0.269,2.391-0.902,3.382-1.657
			c-0.243,0.895-0.555,1.936-0.952,3.199c-1.353,4.283,3.814-0.959,7.092,0.959c3.271,1.921,0,0,5.453,2.884
			c5.457,2.877,0,0,1.636,4.795c1.639,4.802,0,0-0.544,3.839c-0.548,3.839,4.365,9.6,4.365,9.6s0,0-2.73-0.962
			c-2.727-0.955-2.727-3.836-5.453,0C1790.461,664.764,1788.046,657.646,1783.362,653.965z M1777.952,675.602
			c1.228,1.28,2.615,0.715,4.559,2.082c0.79,0.559,1.291,1.12,1.663,1.725c-1.459,0.959-3.721-0.587-5.12,0.891
			C1777.354,682.092,1777.873,677.748,1777.952,675.602z M1764.513,680.564c-0.841-0.215-1.864-0.852-2.955-1.671
			c0.512-2.698,0.647-6.885,0.647-6.885s2.183-0.454,1.696-1.735c-0.487-1.281,0.239-2.133,2.908-1.707
			c2.666,0.426,2.183,1.281,4.605,2.988c2.426,1.706,0.482-1.707-2.183-5.117c-2.666-3.417-4.605-3.839,1.456-5.124
			c0.866-0.179,1.524-0.289,2.043-0.354c0.275,0.684,0.615,1.441,1.052,2.325c3.818,7.675,1.092,4.802,2.727,9.601
			c0.215,0.619,0.426,1.123,0.637,1.542c-0.887,0.172-2.218,1.409-2.458,2.673c-0.304,1.61-2.647,5.002-4.473,7.195
			c-0.551-0.462-1.102-0.923-1.646-1.37c0.133-1.703,0.269-3.6-0.426-3.907c-0.673-0.294-1.417,0.637-2.168,2.114
			C1765.5,680.894,1765.014,680.689,1764.513,680.564z M1756.505,680.939c0.079-0.669,0.265-0.987,0.526-1.109
			c0.54,0.565,1.052,1.128,1.478,1.692c1.61,2.126,2.336,4.259,3.696,7.539c-1.195,0.115-2.537-2.669-3.883-1.725
			C1756.505,688.618,1756.144,684.139,1756.505,680.939z M1654.09,727.716c0,0,0.007,0.015,1.953,3.438
			c-2.226,0.508-3.953,0.944-3.953,0.944s0.826-4.361,1.76-5.914C1654.275,727.512,1654.09,727.716,1654.09,727.716z
			 M1670.996,706.602c-3.818,3.84,0,0-8.18,8.638c0,0-2.658,0-5.578,0l1.761-3.617c2.548-5.12,4.365-9.601,4.365-9.601
			s2.544-3.839,4.361-5.116c0.297-0.208,0.591-0.54,0.877-0.938c0.071,0.025,0.129,0.054,0.211,0.075
			c3.274,0.959,3.821-1.918,6.548,0c2.73,1.921,2.183,7.679,2.183,7.679S1674.813,702.759,1670.996,706.602z M1666.999,779.451
			c0.447-0.783,0.927-1.252,1.414-1.639c1.588,2.072,3.066,7.464,0.948,6.53c-1.35-0.598-2.076-0.819-3.206-0.68
			C1665.547,782.07,1666.005,781.201,1666.999,779.451z M1664.427,761.829c0.394,0.187,0.787,0.301,1.177,0.369
			C1665.018,762.62,1664.648,762.373,1664.427,761.829z M1657.911,760.251c-2.548-1.277-0.729-3.835,0-6.397
			c0.236-0.841,0.357-1.961,0.493-3.174c2.659,2.44,7.139,4.87,7.139,4.87l-4.361,3.839c0,0,0.858,0.895,1.993,1.686
			c-0.73,2.054-1.725,4.569-2.358,4.938c-1.092,0.641-2.179,3.84-4,3.84c-1.818,0-1.092,5.12-1.818,0
			C1654.272,764.731,1661.896,762.259,1657.911,760.251z M1651.936,747.746c0.569,0.419,1.488,0.254,2.791-1.256
			c-0.562-0.315-1.198-0.591-2.146-1.396c0.078-0.279,0.157-0.562,0.236-0.837c0.729-2.563,0.729-2.563,1.456-5.761
			c0.726-3.199,2.909-5.121,2.909-5.121s0.014-0.067,0.028-0.164c0.054,0.09,0.097,0.168,0.15,0.261l2.183,6.72c0,0,0,0-4.365,5.761
			c-0.158,0.208-0.305,0.365-0.451,0.537c0.572,0.322,1.084,0.74,1.774,1.839l-1.503,2.326c0,0-2.908,3.839-3.27,1.28
			C1651.527,750.537,1651.66,749.142,1651.936,747.746z M1563.597,765.16c2.426,1.707,4.608,0.426,2.426,1.707
			c-1.718,1.009-4.187,0.426-6.226,0.136c0.189-0.2,0.379-0.404,0.587-0.626c1.882-2.007-5.453,1.449-3.636,0
			c1.621-1.299,1.518-1.675,4.054-4.011C1561.825,763.317,1562.291,764.241,1563.597,765.16z M1580.811,749.804
			c-1.213-1.281-3.635-1.707-6.305-4.269c-2.666-2.559-5.088-3.84-4.604-2.133c0.486,1.707-0.243,1.069,2.669,6.72
			c2.905,5.649,5.574,8.638,3.636,7.786c-1.939-0.852-2.427-1.281-5.092-3.84c-2.666-2.562-2.544-2.987-6.849-5.12
			c-0.49-0.239-0.944-0.494-1.381-0.744c0.98-0.895,1.925-0.677,3.32-1.492c2.183-1.277,0-3.199,0.727-10.813
			c0.375-3.943-1.389-1.436,2.383-6.259c0.186,0.308,0.383,0.627,0.587,0.967c3.396,5.546,4.848,5.592,7.274,11.754
			C1579.598,748.522,1582.023,751.081,1580.811,749.804z M1560.384,808.784h4.365l-3.64-6.401h5.096l-1.095-7.041h5.095
			c0,0-6.548-2.559-3.639-3.836c0.92-0.404,1.979-1.166,3.006-2.018c0.493,0.336,1.03,0.733,1.785,1.267
			c2.422,1.706,3.635,0.854,2.422,1.706c-1.162,0.819-4.551,1.639-3.961,2.458c-0.053-0.289,0.473-0.583,3.722,0.104
			c6.058,1.277,4.122,1.703,1.452,5.116c-2.665,3.41-4.604,6.827-2.182,5.12c2.426-1.71,1.938-2.562,4.608-2.987
			c2.665-0.426,3.392,0.426,2.909,1.707c-0.483,1.28,1.695,1.735,1.695,1.735s0.243,7.649,1.331,8.931
			c1.095,1.277,4.004-3.202,4.369,0c0.361,3.198,0,7.679-1.821,6.397c-1.817-1.281-3.636,4.29-5.092,0.222
			c-1.453-4.064-3.271-9.182-4.727-8.541c-1.453,0.641,0.727,8.319-1.092,6.401c-1.817-1.925-5.091-6.401-5.452-8.319
			c-0.365-1.921-3.271-3.839-3.271-1.921c0,1.921,0.723,7.038-1.095,5.12c-1.146-1.213-2.874-0.39-4.269-0.576
			c-0.055-0.054-0.094-0.125-0.158-0.168C1558.927,811.983,1560.384,808.784,1560.384,808.784z M1546.203,783.827
			c0,0-7.273,0.637-6.183,0c1.088-0.641,3.271-2.562,4.365-3.843c1.088-1.277,5.814,0,5.814,0l8.004-4.476h-11.274l4.365-4.48h4.727
			c0,0,0.008-0.007,2.169-2.312c0.998,1.414,3.155,3.199,5.406,3.693c3.882,0.854,5.338,2.987,5.338,2.987s-2.232,0.805-3.048,3.148
			c-0.14,0.054-0.269,0.107-0.412,0.161c-8,3.202-6.183,2.559-7.271,5.403c-1.095,2.844-7.639,0-7.639,0L1546.203,783.827z
			 M1532.625,817.1l3.639-1.28l2.189,2.107c1.109,2.555,1.628,4.74,1.628,4.852c0,0.183-1.452-4.025-1.452,0s2.544,1.105,4,0.004
			c1.453-1.103,2.544,2.057,2.544,2.057s-2.909,5.804-1.456,7.081c0.372,0.329,0.576,0.866,0.708,1.489
			c-0.683-0.512-1.216-0.952-1.617-0.952c-0.97,0-1.939-2.984-2.665-2.984c-0.73,0-2.183-4.269-3.64-7.253
			C1535.051,819.236,1532.625,817.1,1532.625,817.1z M1376.327,781.004c0.226,0.297,0.415,0.563,0.598,0.823
			c-0.662,0.669-1.417,1.41-2.419,2.351c-3.636,3.414-2.669,3.41-6.064,6.823c-3.393,3.414-1.696-1.28,1.456-8.107
			c2.544-5.503,1.932-3.245,3.635-5.739C1374.009,777.941,1374.946,779.183,1376.327,781.004z M1369.16,818.045
			c0.408,1.001,0.866,2.114,1.432,3.385c-0.019,0.25-0.118,0.519-0.455,0.712C1368.838,822.907,1368.513,820.921,1369.16,818.045z
			 M1388.872,782.926c-2.705-1.303-4.187-2.204-5.503-2.987c0.597-0.995,0.969-1.546,2.533-4.72
			c3.148-6.401,0.966-2.988-3.156,0.852c-0.963,0.897-1.718,1.628-2.372,2.269c-0.802-0.365-1.739-0.744-2.956-1.174
			c-1.459-0.516-2.519-0.884-3.22-1.049c0.297-0.479,0.63-1.037,1.034-1.749c2.77-4.874,7.789-18.71,10.438-26.234
			c1.771,4.186,3.609,9.596,4.837,11.757c1.639,2.881,2.727,1.918,0,10.556c-1.349,4.279,3.821-0.955,7.092,0.963
			c3.277,1.921,0,0,5.457,2.876c5.452,2.881,0,0,1.635,4.802c1.636,4.799,0,0-0.544,3.84c-0.547,3.839,4.361,9.597,4.361,9.597
			s0,0-2.729-0.959c-2.723-0.959-2.723-3.84-5.449,0C1397.599,795.402,1394.872,785.806,1388.872,782.926z M1392.693,824.191
			c-2.73-0.959-5.457-5.757-9.822-6.712c-4.179-0.92-6.866-5.328-10.44-6.545c0.211-0.332,0.422-0.712,0.619-1.162
			c1.699-3.84,2.909-2.563,5.578-4.849c2.665-2.286,0.727-2.404-3.152-1.124c-3.882,1.281-3.396,1.707-3.639,0
			c-0.236-1.688,2.372-5.893,7.363-15.9c0.226,1.23,0.684,2.858,2.036,5.582c3.817,7.678,1.088,4.802,2.727,9.6s3.273,2.88,6,4.798
			c2.727,1.922,2.183,3.84,3.818,7.679c1.639,3.84,4.365,7.675,4.365,7.675S1395.42,825.154,1392.693,824.191z M1370.033,830.607
			c0.333-0.752,0.748-1.485,1.804-3.346c1.456-2.559,1.695,0.426,4.848,0c0.308-0.039,0.555-0.093,0.77-0.15
			c-0.208,0.612-0.29,1.688,0.508,3.8c2.183,5.761,4.362-0.959,6.545,0s3.821,5.761,0.547,6.724
			c-1.538,0.447-2.351,0.261-3.12,0.039c3.253-5.32,3.894-6.509-0.396-2.733c-0.916,0.805-1.9,1.706-2.888,2.662
			c-0.05,0.014-0.086,0.014-0.14,0.032C1375.895,838.4,1373.622,834.261,1370.033,830.607z M1373.84,851.267
			c0.619,0.63,0.852,2.083,0.913,3.46c-1.653,1.031-3.056,1.524-3.883,2.397C1369.769,858.287,1371.668,856.251,1373.84,851.267z
			 M1366.262,842.622c2.909,2.984,4.122,0,4.122,0s-1.696-3.843-3.152-4.269s-1.699-2.133-1.89-2.984
			c-0.11-0.489,0.376-1.127,0.984-1.896c0.061,0.106,0.122,0.211,0.183,0.321c2.73,4.795,4.365,5.758,4.365,9.597
			c0,1.038,0.082,2,0.232,2.881c-0.426,0.683-0.766,1.327-0.97,1.889c-1.209,3.417-4.114,0-6.301,0
			c-2.179,0-1.696-3.836-2.179-4.215C1361.167,843.57,1363.35,839.635,1366.262,842.622z"/>
		<path fill="#191919" d="M1561.281,205.336c0,0,0,62.294,0,194.189c0,131.895-3.381,142.579-3.381,236.002
			c0,93.428-16.488,291.271-16.488,291.271h27.48c0,0,10.991-307.758,5.495-373.705c-5.495-65.948,5.496-351.722,0-406.677
			C1568.893,91.46,1567.053,42,1567.053,42L1561.281,205.336z"/>
		<path fill="#191919" d="M1491.666,226.099c0,0,31.13,22.138,43.968,34.196c40.304,37.859,29.312,43.967,29.312,43.967
			c-12.212-10.992-39.083-46.411-39.083-46.411L1491.666,226.099z"/>
		<path fill="#191919" d="M1643.259,235.259c0,0-31.129,22.137-43.968,34.196c-40.303,37.859-29.312,43.967-29.312,43.967
			c12.212-10.992,39.08-46.412,39.08-46.412L1643.259,235.259z"/>
		<path fill="#191919" d="M1491.666,381.817c0,0,31.13,22.138,43.968,34.195c40.304,37.86,29.312,43.968,29.312,43.968
			c-12.212-10.992-39.083-46.411-39.083-46.411L1491.666,381.817z"/>
		<path fill="#191919" d="M1643.259,390.977c0,0-31.129,22.138-43.968,34.196c-40.303,37.859-29.312,43.968-29.312,43.968
			c12.212-10.992,39.08-46.412,39.08-46.412L1643.259,390.977z"/>
	</g>
	<path fill="#191919" d="M1564.945,694.473c-12.212-10.991-39.083-46.41-39.083-46.41"/>
	<path fill="#191919" d="M1643.259,625.471c0,0-31.129,22.137-43.968,34.195c-40.303,37.859-29.312,43.967-29.312,43.967
		c12.212-10.992,39.08-46.411,39.08-46.411L1643.259,625.471z"/>
</g>
</svg>
