<?xml version="1.0" encoding="utf-8"?>
<!-- Generator: Adobe Illustrator 16.0.0, SVG Export Plug-In . SVG Version: 6.00 Build 0)  -->
<!DOCTYPE svg PUBLIC "-//W3C//DTD SVG 1.1//EN" "http://www.w3.org/Graphics/SVG/1.1/DTD/svg11.dtd">
<svg version="1.1" id="Layer_1" xmlns="http://www.w3.org/2000/svg" xmlns:xlink="http://www.w3.org/1999/xlink" x="0px" y="0px"
	 width="70.54px" height="70.092px" viewBox="0 0 70.54 70.092" enable-background="new 0 0 70.54 70.092" xml:space="preserve">
<circle fill="#212931" cx="35.269" cy="34.957" r="34.957"/>
<g>
	<g>
		<g>
			<path fill="#FFFFFF" d="M53.22,33.595c-14.866,0-20.693,0-35.559,0c-2.732,0-2.732,4.238,0,4.238c14.865,0,20.692,0,35.559,0
				C55.953,37.833,55.953,33.595,53.22,33.595L53.22,33.595z"/>
		</g>
	</g>
	<g>
		<g>
			<path fill="#FFFFFF" d="M51.456,34.505c-5.257,5.255-10.512,10.512-15.769,15.768c-1.934,1.934,1.063,4.93,2.996,2.995
				c5.256-5.255,10.512-10.512,15.769-15.769C56.386,35.565,53.389,32.569,51.456,34.505L51.456,34.505z"/>
		</g>
	</g>
	<g>
		<g>
			<path fill="#FFFFFF" d="M54.659,34.089c-5.255-5.256-10.512-10.512-15.768-15.768c-1.934-1.932-4.931,1.063-2.995,2.996
				c5.255,5.256,10.512,10.512,15.768,15.77C53.597,39.021,56.593,36.024,54.659,34.089L54.659,34.089z"/>
		</g>
	</g>
</g>
<path fill="none" stroke="#FFFFFF" stroke-width="0.25" stroke-miterlimit="10" d="M-95.428-64.766"/>
</svg>
