<?xml version="1.0" encoding="utf-8"?>
<!-- Generator: Adobe Illustrator 16.0.0, SVG Export Plug-In . SVG Version: 6.00 Build 0)  -->
<!DOCTYPE svg PUBLIC "-//W3C//DTD SVG 1.1//EN" "http://www.w3.org/Graphics/SVG/1.1/DTD/svg11.dtd">
<svg version="1.1" id="Layer_1" xmlns="http://www.w3.org/2000/svg" xmlns:xlink="http://www.w3.org/1999/xlink" x="0px" y="0px"
	 width="539px" height="103.291px" viewBox="0 0 539 103.291" enable-background="new 0 0 539 103.291" xml:space="preserve">
<g>
	<path fill="#141D24" d="M0,103.291c0,0,94.5-97.5,286-97.5c0,0,166-3,253,97.5H0z"/>
	<g>
		<polygon fill="#101518" points="247.656,18.25 252.781,18.25 252.781,21 253.781,21 254.781,21 254.781,18.25 256,18.25 
			253.781,0 		"/>
		<polygon fill="#12181E" points="253.781,0 256,18.25 259.906,18.25 		"/>
	</g>
	<g>
		<polygon fill="#101518" points="195.906,36.5 201.031,36.5 201.031,39.25 202.031,39.25 203.031,39.25 203.031,36.5 204.25,36.5 
			202.031,18.25 		"/>
		<polygon fill="#12181E" points="202.031,18.25 204.25,36.5 208.156,36.5 		"/>
	</g>
	<g>
		<polygon fill="#101518" points="330.906,34.723 334.219,34.723 334.219,36.5 334.865,36.5 335.511,36.5 335.511,34.723 
			336.299,34.723 334.865,22.928 		"/>
		<polygon fill="#12181E" points="334.865,22.928 336.299,34.723 338.823,34.723 		"/>
	</g>
	<g>
		<polygon fill="#101518" points="415.034,37.06 419.893,37.06 419.893,39.666 420.841,39.666 421.787,39.666 421.787,37.06 
			422.943,37.06 420.841,19.761 		"/>
		<polygon fill="#12181E" points="420.841,19.761 422.943,37.06 426.646,37.06 		"/>
	</g>
	<polygon fill="#141D24" points="236.174,0.547 230.367,17.846 235.226,17.846 235.226,20.452 236.174,20.452 237.12,20.452 
		237.12,17.846 238.276,17.846 241.979,17.846 	"/>
	<polygon fill="#141D24" points="330.908,0.548 325.102,17.847 329.959,17.847 329.959,20.453 330.908,20.453 331.854,20.453 
		331.854,17.847 333.01,17.847 336.713,17.847 	"/>
	<polygon fill="#141D24" points="176.527,9.969 172.673,21.452 175.898,21.452 175.898,23.183 176.527,23.183 177.156,23.183 
		177.156,21.452 177.923,21.452 180.381,21.452 	"/>
	<polygon fill="#141D24" points="155.527,16.321 151.673,27.805 154.898,27.805 154.898,29.535 155.527,29.535 156.156,29.535 
		156.156,27.805 156.923,27.805 159.381,27.805 	"/>
	<polygon fill="#141D24" points="293.823,3.362 289.969,14.846 293.194,14.846 293.194,16.576 293.823,16.576 294.452,16.576 
		294.452,14.846 295.22,14.846 297.677,14.846 	"/>
	<polygon fill="#141D24" points="269.501,0.547 265.646,12.03 268.872,12.03 268.872,13.761 269.501,13.761 270.13,13.761 
		270.13,12.03 270.897,12.03 273.354,12.03 	"/>
	<polygon fill="#141D24" points="219.284,3.894 215.429,15.377 218.655,15.377 218.655,17.107 219.284,17.107 219.913,17.107 
		219.913,15.377 220.68,15.377 223.137,15.377 	"/>
</g>
</svg>
