<?xml version="1.0" encoding="utf-8"?>
<!-- Generator: Adobe Illustrator 16.0.0, SVG Export Plug-In . SVG Version: 6.00 Build 0)  -->
<!DOCTYPE svg PUBLIC "-//W3C//DTD SVG 1.1//EN" "http://www.w3.org/Graphics/SVG/1.1/DTD/svg11.dtd">
<svg version="1.1" id="Layer_1" xmlns="http://www.w3.org/2000/svg" xmlns:xlink="http://www.w3.org/1999/xlink" x="0px" y="0px"
	 width="455.101px" height="143.952px" viewBox="0 0 455.101 143.952" enable-background="new 0 0 455.101 143.952"
	 xml:space="preserve">
<path fill="#172128" d="M0,143.952c0,0,85-89.5,218-115.5c133-26,237.101,18.172,237.101,18.172v97.328H0z"/>
<polygon fill="#172128" points="302.408,0 296.601,17.299 301.458,17.299 301.458,19.905 302.408,19.905 303.353,19.905 
	303.353,17.299 304.509,17.299 308.212,17.299 "/>
<polygon fill="#172128" points="248.158,7.75 242.352,25.049 247.209,25.049 247.209,27.655 248.158,27.655 249.103,27.655 
	249.103,25.049 250.259,25.049 253.962,25.049 "/>
<polygon fill="#172128" points="195.908,14.5 190.102,31.799 194.959,31.799 194.959,34.405 195.908,34.405 196.854,34.405 
	196.854,31.799 198.01,31.799 201.713,31.799 "/>
<polygon fill="#172128" points="168.158,30.25 162.352,47.549 167.209,47.549 167.209,50.155 168.158,50.155 169.104,50.155 
	169.104,47.549 170.26,47.549 173.963,47.549 "/>
<polygon fill="#172128" points="144.408,40.203 138.602,57.502 143.459,57.502 143.459,60.108 144.408,60.108 145.354,60.108 
	145.354,57.502 146.51,57.502 150.213,57.502 "/>
<polygon fill="#172128" points="116.158,56.203 110.352,73.502 115.209,73.502 115.209,76.108 116.158,76.108 117.104,76.108 
	117.104,73.502 118.26,73.502 121.963,73.502 "/>
</svg>
