<?xml version="1.0" encoding="utf-8"?>
<!-- Generator: Adobe Illustrator 16.0.0, SVG Export Plug-In . SVG Version: 6.00 Build 0)  -->
<!DOCTYPE svg PUBLIC "-//W3C//DTD SVG 1.1//EN" "http://www.w3.org/Graphics/SVG/1.1/DTD/svg11.dtd">
<svg version="1.1" id="Layer_1" xmlns="http://www.w3.org/2000/svg" xmlns:xlink="http://www.w3.org/1999/xlink" x="0px" y="0px"
	 width="3000px" height="816px" viewBox="0 0 3000 816" enable-background="new 0 0 3000 816" xml:space="preserve">
<g>
	<circle fill="#19A998" cx="1480.697" cy="387.886" r="1.578"/>
</g>
<g>
	<circle fill="#19A998" cx="1530.402" cy="376.999" r="1.657"/>
</g>
<g>
	<circle fill="#19A998" cx="1567.168" cy="359.957" r="0.789"/>
</g>
<g>
	<path fill="none" stroke="#00A79D" stroke-width="0.25" stroke-miterlimit="10" d="M1530.401,376.999"/>
</g>
<g>
	<path fill="none" stroke="#00A79D" stroke-width="0.25" stroke-miterlimit="10" d="M1480.697,387.886"/>
</g>
<g>
	<path fill="none" stroke="#00A79D" stroke-width="0.25" stroke-miterlimit="10" d="M1567.168,359.957"/>
</g>
<g>
	<path fill="none" stroke="#00A79D" stroke-width="0.25" stroke-miterlimit="10" d="M1530.401,376.999"/>
</g>
<g>
	<circle fill="#19A998" cx="1153.994" cy="362.336" r="2.106"/>
</g>
<g>
	<circle fill="#19A998" cx="1211.728" cy="380.511" r="1.93"/>
</g>
<g>
	<circle fill="#19A998" cx="1278.006" cy="388.887" r="2.579"/>
</g>
<g>
	<circle fill="#19A998" cx="1248.755" cy="422.7" r="1.755"/>
</g>
<g>
	<path fill="none" stroke="#00A79D" stroke-width="0.25" stroke-miterlimit="10" d="M1211.728,380.511"/>
</g>
<g>
	<path fill="none" stroke="#00A79D" stroke-width="0.25" stroke-miterlimit="10" d="M1153.994,362.336"/>
</g>
<g>
	<path fill="none" stroke="#00A79D" stroke-width="0.25" stroke-miterlimit="10" d="M1278.006,388.887"/>
</g>
<g>
	<path fill="none" stroke="#00A79D" stroke-width="0.25" stroke-miterlimit="10" d="M1211.728,380.511"/>
</g>
<g>
	<path fill="none" stroke="#00A79D" stroke-width="0.25" stroke-miterlimit="10" d="M1248.755,422.7"/>
</g>
<g>
	<path fill="none" stroke="#00A79D" stroke-width="0.25" stroke-miterlimit="10" d="M1278.006,388.887"/>
</g>
<g>
	<path fill="none" stroke="#00A79D" stroke-width="0.25" stroke-miterlimit="10" d="M1211.728,380.511"/>
</g>
<g>
	<path fill="none" stroke="#00A79D" stroke-width="0.25" stroke-miterlimit="10" d="M1248.755,422.7"/>
</g>
<g>
	<path fill="#19A998" d="M1374.048,453.41c0-0.872-0.706-1.577-1.579-1.577s-1.578,0.705-1.578,1.577c0,0.871,0.707,1.58,1.578,1.58
		C1373.342,454.99,1374.048,454.281,1374.048,453.41z"/>
</g>
<g>
	<circle fill="#19A998" cx="1289.818" cy="345.489" r="1.58"/>
</g>
<g>
	<circle fill="#19A998" cx="1414.584" cy="349.701" r="2.632"/>
</g>
<g>
	<circle fill="#19A998" cx="1314.823" cy="443.671" r="2.896"/>
</g>
<g>
	<circle fill="#19A998" cx="1153.994" cy="451.832" r="2.105"/>
</g>
<g>
	<circle fill="#19A998" cx="1582.783" cy="431.037" r="2.369"/>
</g>
<g>
	<path fill="#19A998" d="M1667.805,396.028c0,1.163-0.943,2.106-2.105,2.106c-1.163,0-2.105-0.943-2.105-2.106
		s0.942-2.105,2.105-2.105C1666.861,393.922,1667.805,394.865,1667.805,396.028z"/>
</g>
<g>
	<ellipse fill="#19A998" cx="1908.254" cy="399.204" rx="0" ry="2.333"/>
</g>
<g>
	<circle fill="#19A998" cx="1698.338" cy="454.463" r="1.053"/>
</g>
<g>
	<circle fill="#19A998" cx="1655.893" cy="484.998" r="1.053"/>
</g>
<g>
	<circle fill="#19A998" cx="1643.957" cy="461.789" r="1.053"/>
</g>
<g>
	<circle fill="#19A998" cx="1548.785" cy="472.902" r="1.053"/>
</g>
<g>
	<path fill="#19A998" d="M1468.018,428.668c0,0.58-0.471,1.052-1.052,1.052s-1.054-0.472-1.054-1.052
		c0-0.582,0.473-1.053,1.054-1.053S1468.018,428.086,1468.018,428.668z"/>
</g>
<g>
	<circle fill="#19A998" cx="1357.895" cy="406.846" r="1.053"/>
</g>
<g>
	<circle fill="#19A998" cx="1358.947" cy="360.229" r="1.053"/>
</g>
<g>
	<circle fill="#19A998" cx="1411.951" cy="391.465" r="1.053"/>
</g>
<g>
	<circle fill="#19A998" cx="1383.173" cy="424.455" r="1.053"/>
</g>
<g>
	<circle fill="#19A998" cx="1304.259" cy="479.733" r="1.053"/>
</g>
<g>
	<circle fill="#19A998" cx="1256.063" cy="460.736" r="1.053"/>
</g>
<g>
	<circle fill="#19A998" cx="1280.584" cy="431.036" r="1.053"/>
</g>
<g>
	<circle fill="#19A998" cx="1170.556" cy="479.732" r="1.052"/>
</g>
<g>
	<path fill="#19A998" d="M1053.452,468.676c0,0.582-0.471,1.055-1.053,1.055c-0.581,0-1.053-0.473-1.053-1.055
		c0-0.581,0.473-1.052,1.053-1.052C1052.98,467.624,1053.452,468.095,1053.452,468.676z"/>
</g>
<g>
	<circle fill="#19A998" cx="1076.497" cy="433.404" r="1.053"/>
</g>
<g>
	<circle fill="#19A998" cx="1007.313" cy="422.699" r="1.053"/>
</g>
<g>
	<circle fill="#19A998" cx="1064.061" cy="401.605" r="1.053"/>
</g>
<g>
	<circle fill="#19A998" cx="1026.747" cy="433.404" r="1.053"/>
</g>
<g>
	<circle fill="#19A998" cx="1027.799" cy="386.308" r="1.053"/>
</g>
<g>
	<path fill="#19A998" d="M989.71,407.898c0,0.582-0.471,1.055-1.052,1.055c-0.583,0-1.054-0.472-1.054-1.055
		c0-0.581,0.471-1.052,1.054-1.052C989.24,406.846,989.71,407.316,989.71,407.898z"/>
</g>
<g>
	<path fill="#19A998" d="M977.273,459.683c0,0.582-0.472,1.054-1.052,1.054c-0.582,0-1.054-0.473-1.054-1.054
		c0-0.582,0.472-1.052,1.054-1.052C976.802,458.631,977.273,459.101,977.273,459.683z"/>
</g>
<g>
	<circle fill="#19A998" cx="1141.017" cy="420.945" r="1.053"/>
</g>
<g>
	<path fill="#19A998" d="M1756.947,444.636c0,0.581-0.472,1.054-1.053,1.054c-0.582,0-1.055-0.473-1.055-1.054
		s0.473-1.052,1.055-1.052C1756.476,443.584,1756.947,444.055,1756.947,444.636z"/>
</g>
<g>
	<circle fill="#19A998" cx="1806.146" cy="405.792" r="1.053"/>
</g>
<g>
	<circle fill="#19A998" cx="1754.841" cy="398.133" r="1.053"/>
</g>
<g>
	<path fill="#19A998" d="M1783.879,434.457c0,0.582-0.471,1.055-1.052,1.055c-0.58,0-1.054-0.473-1.054-1.055
		c0-0.58,0.473-1.052,1.054-1.052S1783.879,433.877,1783.879,434.457z"/>
</g>
<g>
	<circle fill="#19A998" cx="1844.511" cy="440.775" r="1.053"/>
</g>
<g>
	<circle fill="#19A998" cx="1859.556" cy="401.605" r="1.053"/>
</g>
<g>
	<circle fill="#19A998" cx="1830.52" cy="419.893" r="1.053"/>
</g>
<g>
	<path fill="#19A998" d="M1838.567,376.998c0,0.582-0.47,1.054-1.052,1.054c-0.58,0-1.054-0.472-1.054-1.054
		c0-0.581,0.473-1.052,1.054-1.052C1838.098,375.946,1838.567,376.416,1838.567,376.998z"/>
</g>
<g>
	<circle fill="#19A998" cx="1905.922" cy="406.846" r="1.053"/>
</g>
<g>
	<circle fill="#19A998" cx="1093.599" cy="388.886" r="1.053"/>
</g>
<g>
	<circle fill="#19A998" cx="943.571" cy="408.951" r="1.052"/>
</g>
<g>
	<path fill="#19A998" d="M1580.414,499.736c0-1.451-1.178-2.631-2.632-2.631s-2.632,1.179-2.632,2.631
		c0,1.455,1.178,2.634,2.632,2.634S1580.414,501.191,1580.414,499.736z"/>
</g>
<g>
	<path fill="#19A998" d="M1638.851,341.542c0,1.308-1.063,2.369-2.371,2.369s-2.368-1.061-2.368-2.369c0-1.309,1.06-2.37,2.368-2.37
		C1637.789,339.172,1638.851,340.232,1638.851,341.542z"/>
</g>
<g>
	<ellipse fill="#19A998" cx="1187.162" cy="347.069" rx="0" ry="0.526"/>
</g>
<g>
	<circle fill="#19A998" cx="1466.966" cy="466.835" r="1.843"/>
</g>
<g>
	<path fill="#19A998" d="M1347.199,484.207c0,0.438-0.354,0.791-0.789,0.791c-0.438,0-0.791-0.354-0.791-0.791
		c0-0.437,0.354-0.789,0.791-0.789C1346.846,483.418,1347.199,483.771,1347.199,484.207z"/>
</g>
<g>
	<circle fill="#19A998" cx="1707.971" cy="399.87" r="1.736"/>
</g>
<g>
	<path fill="#19A998" d="M1623.056,478.943c0,0.436-0.354,0.788-0.789,0.788s-0.789-0.353-0.789-0.788s0.354-0.789,0.789-0.789
		C1622.702,478.154,1623.056,478.508,1623.056,478.943z"/>
</g>
<g>
	
		<rect x="1383.069" y="437.455" transform="matrix(0.3786 0.9255 -0.9255 0.3786 1275.0508 -1001.1835)" fill="#00A79D" width="0.209" height="23.137"/>
</g>
<g>
	
		<rect x="1446.009" y="461.684" transform="matrix(0.8904 0.4551 -0.4551 0.8904 369.8285 -612.5598)" fill="#00A79D" width="22.172" height="0.211"/>
</g>
<g>
	
		<rect x="1577.896" y="430.118" transform="matrix(0.9285 0.3714 -0.3714 0.9285 277.395 -554.3691)" fill="#00A79D" width="0.21" height="25.792"/>
</g>
<g>
	
		<rect x="1165.208" y="434.579" transform="matrix(0.3998 0.9166 -0.9166 0.3998 1109.0157 -799.8855)" fill="#00A79D" width="0.209" height="24.678"/>
</g>
</svg>
